<?xml version="1.0" encoding="utf-8"?>
<!-- Generator: Adobe Illustrator 27.5.0, SVG Export Plug-In . SVG Version: 6.00 Build 0)  -->
<svg version="1.1" xmlns="http://www.w3.org/2000/svg" xmlns:xlink="http://www.w3.org/1999/xlink" x="0px" y="0px"
	 viewBox="0 0 1000 1000" style="enable-background:new 0 0 1000 1000;" xml:space="preserve">
<g id="BG">
	<rect style="fill:#FFFFFF;" width="1000" height="1000"/>
	<rect style="fill:#FFFFFF;" width="1000" height="1000"/>
</g>
<g id="Object">
	<g>
		<path style="fill:#1A1A1A;" d="M560.606,366.876c2.384,0.637,4.177,1.175,4.648,0.793c-1.484,1.201-3.754,2.913-3.913,5.011
			c-7.851-2.253-10.962,0.523-18.397,2.072c0.065-1.021-0.081-2.063,0.24-3.063c0.207-0.648,0.458-1.222,0.735-1.75
			c-46.989,7.686-97.936,8.733-141.024,10.339c-0.562,1.42-1.806,2.154-3.741,2.205c-1.377-0.283-1.201-0.978,0.528-2.094
			c-21.108,0.493-42.753,2.017-63.681-1.84c0.395,4.968,1.485,11.451,0.257,16.513c73.784-2.965,163.782,2.827,234.036-24.034
			c-0.017,0.142-0.052,0.27-0.107,0.386c12.343-1.982,24.42-5.35,36.764-7.307c-0.09-1.266-0.468-6.607-0.691-10.129
			C592.041,359.406,576.649,363.595,560.606,366.876z M365.649,385.328c-4.792,0.768-0.536-3.866,0.927-0.914
			C366.28,384.728,366.091,385.255,365.649,385.328z"/>
		<path style="fill:#1A1A1A;" d="M543.921,369.94c5.627-0.921,11.193-1.94,16.686-3.064
			C555.364,365.474,547.252,363.599,543.921,369.94z"/>
		<path style="fill:#1A1A1A;" d="M464.527,362.68c-41.993,3.351-89.058,9.726-130.91,0.562c-1.489,0.931-4.097,2.887-3.784,5.08
			c0.408,2.866,5.067,3.806,5.959,8.276c21.34-0.107,42.598,0.373,63.951,0.129c0.026-0.142,0.06-0.283,0.111-0.42
			c-0.051,0.137-0.086,0.279-0.111,0.42c70.58-0.777,136.908-18.908,206.423-24.369c-0.287-5.131,5.277-4.299,3.243-11.176
			C563.449,354.859,512.167,358.879,464.527,362.68z"/>
		<path style="fill:#1A1A1A;" d="M489.471,347.316c-0.545,1.038-1.506,1.931-3.664,2.415c-1.712-0.759-2.832-1.566-1.244-2.347
			c-14.952-0.223-150.388,14.149-150.388-8.169c0,0,0.004,17.513,0.339,22.438c94.018,0.155,181.501-7.195,274.219-22.558
			c-0.669-1.879-1.326-3.355-1.326-3.355C568.807,343.85,528.5,342.464,489.471,347.316z"/>
		<path style="fill:#1A1A1A;" d="M433.225,396.543c-0.059-0.117-0.112-0.235-0.16-0.354
			C433.112,396.311,433.17,396.426,433.225,396.543z"/>
		<path style="fill:#1A1A1A;" d="M433.041,396.136c0.007,0.018,0.017,0.035,0.024,0.053c-0.074-0.192-0.142-0.389-0.196-0.594
			C432.916,395.775,432.972,395.956,433.041,396.136z"/>
		<path style="fill:#1A1A1A;" d="M433.258,396.612c-0.011-0.023-0.022-0.046-0.033-0.069
			C433.237,396.566,433.246,396.589,433.258,396.612z"/>
		<polygon style="fill:#1A1A1A;" points="509.091,386.821 507.323,386.976 508.524,387.701 		"/>
		<path style="fill:#1A1A1A;" d="M443.312,397.637h-0.004c-0.057,0.077-0.115,0.154-0.172,0.232c0.002,0,0.003,0,0.004,0
			C443.197,397.792,443.255,397.714,443.312,397.637z"/>
		<path style="fill:#1A1A1A;" d="M441.918,399.516c0.406-0.549,0.814-1.098,1.218-1.647c-2.662,0.272-5.322,0.531-7.977,0.77
			c0.439,0.302,0.943,0.595,1.538,0.874C438.434,399.512,440.176,399.512,441.918,399.516z"/>
		<path style="fill:#1A1A1A;" d="M555.01,385.685c0.944-0.189,1.9-0.253,2.874-0.193c-0.811-0.18-1.656-0.107-2.527,0.129
			C555.241,385.642,555.125,385.663,555.01,385.685z"/>
		<path style="fill:#1A1A1A;" d="M433.258,396.612c0.397,0.805,0.994,1.484,1.79,2.036c0.037-0.003,0.073-0.007,0.11-0.01
			C434.244,398.009,433.636,397.332,433.258,396.612z"/>
		<path style="fill:#1A1A1A;" d="M610.127,365.164c-1.313,0.519-2.651,0.969-4.011,1.347c2.677,1.828,0.056,8.001-3.205,6.732
			c-1.918-0.747-1.355-3.99-1.219-5.504c-47.553,11.716-103.607,24.506-158.552,30.13c-0.407,0.549-0.816,1.099-1.223,1.648
			c1.476,0.536,2.956,1.073,4.432,1.613c-2.089,0.828-4.513,1.034-7.019,1.081c-0.982-0.515-2.561-1.403-2.638-2.698
			c-0.623-0.24-1.165-0.532-1.643-0.864c-34.482,3.083-68.337,3.168-99.174-1.796c-4.96,27.621,124.161,19.233,131.656,19.075
			c-4.299-0.36,27.389-6.757,34.906-8.036c20.276-3.454,40.346-7.654,60.583-11.138c-0.716-1.476-1.283-3.016-1.699-4.621
			c6.624-1.146,9.482-1.197,16.17-1.197c-1.729,0.88-2.875,1.926-3.805,3.033c1.562-0.485,36.438-11.567,36.832-10.503
			c1.566,4.145-36.759,12.901-39.042,13.484c-1.754,1.206-3.556,1.652-5.401,1.351c-29.938,7.555-61.258,14.789-92.045,17.47
			c33.426-0.871,66.303-4.17,99.458-8.319c0.034-0.129,0.069-0.257,0.103-0.386c-0.034,0.129-0.069,0.257-0.103,0.386
			c11.734-1.467,24.051-1.995,35.223-6.122l1.274-8.924c-5.479,3.591-59.253,22.657-60.197,14.802
			c0.553,4.543,57.722-19.071,62.836-19.071c0.463-3.582-4.69-5.882-2.952-9.473c-20.644,6.423-224.486,40.217-223.992,29.238
			c-0.283,6.916,204.047-27.831,225.601-32.151C615.906,371.278,615.524,367.751,610.127,365.164z"/>
		<path style="fill:#1A1A1A;" d="M611.659,330.811c0.034,0.059,0.038,0.12,0.055,0.18
			C614.226,330.878,615.503,330.661,611.659,330.811z"/>
		<path style="fill:#1A1A1A;" d="M604.357,329.675c-54.787,2.39-109.643,7.534-164.434,10.537c0.957,1.24,0.558,2.643-0.232,3.835
			c-2.175-0.45-1.862-1.6-2.42-2.501c0.009-1.197-36.609-0.957-41.942-0.862c1.18-4.432-4.179-11.275-5.191-15.436
			c18.26,4.762,217.883-4.604,216.544,1.896c2.21-10.618-200.85-9.902-217.99-5.547c-2.016-3.012-3.938-6.066-5.706-9.228
			c-1.965-0.592-3.887-1.292-5.77-2.107c1.969,7.53,8.13,24.605,14.05,30.517c-4.801,0.09-9.7-0.086-14.501-0.232
			c1.004-0.476-30.899-83.283-33.46-91.066c0.815-0.03,1.566-0.232,2.257-0.609c2.021,1.712,3.467-0.245,3.265-2.136
			c0.326,0.073,0.669,0.129,1.034,0.167c-1.871,20.109,18.401,41.624,26.021,58.97c1.326-0.592,2.699-0.983,4.127-1.171
			c-8.031-15.767-14.458-32.885-21.31-49.351c-2.703,0.129-4.968-0.923-6.8-3.162c2.158,0.103,4.316,0.206,6.251,0.545
			c-0.36-2.643-1.824-4.749-3.093-7.036c8.134-1.107,16.912-14.424,22.923-19.611c-0.931,0.21-0.665-0.897-0.626-1.124
			c0.446,0.03,0.798,0.266,1.06,0.704c6.659-7.208,15.188-10.172,22.811-15.977c10.129-0.09,17.869-14.883,21.906-22.207
			c-2.428,1.407-5.539,1.489-8.731,0.974c-3.81,4.814-8.671,9.151-12.313,13.772c-13.021-10.099-28.462-16.715-41.526-26.699
			c-2.57-1.961-48.733-37.755-48.695-38.059c-2.579-0.459-5.895,0.828-7.148,3.308c1.901-0.382,4.003-0.549,6.139-0.691
			c-2.278,3.308-2.78,4.007-7.057,3.625c-3.402,17.74,14.064,42.217,20.825,57.19c19.697-4.556,13.184-0.742,8.503-12.545
			c-4.2-10.567,45.271,9.842,12.227,18.367c0.799,1.296-2.583,4.831-3.428,0.566c-2.098,0.206-4.479,0.176-7.152-0.099
			c-1.527,1.523-3.368,2.145-5.525,1.862c4.543,11.275,7.357,24.038,12.948,34.79c-16.929,1.845-43.134,0.33-57.91,9.705
			c1.505-18.526,3.685-36.866,6.281-55.152c1.755-12.352,5.256-25.385,5.758-37.887c0.116-2.853,7.113-23.747-1.566-14.192
			l-11.807,4.513c-0.575-2.716-12.047,3.977-13.892,5.311l-1.665,2.467c-21.893,14.523-41.547,54.135-55.199,76.981
			c4.531,3.291-2.767,7.95-4.462,8.744c-0.476,0.219-0.978,0.433-1.501,0.614c-1.759,2.068-18.247,23.168-12.163,22.992
			c0.519-0.785,90.071-8.872,90.032-8.962c13.429,6.032,39.243-10.666,55.371-9.362c-9.863,17.693,18.011,58.078,27.325,73.171
			c-4.376,1.322-36.244,8.302-35.85,9.945c3.527-1.059,4.415,2.107,0.725,1.57c0.875,1.274,4.23,4.127,6.105,3.921
			c31.782,25.605,117.584,11.223,153.301,5.208c-1.468-1.48-1.88-3.042,1.244-4.861c1.72-0.073,12.643-1.416,9.794,3.411
			c33.366-1.823,74.587,2.407,106.541-8.662c0.176,4.26,3.364,8.422,3.84,2.832c-0.352-0.142-0.468-0.347-0.373-0.7
			c-0.223-0.948,1.056-3.925-0.429-3.96c0.072-0.169,0.064-0.335,0.017-0.498C608.301,331.145,602.607,331.103,604.357,329.675z
			 M310.647,165.833c-0.026-0.013-0.026-0.03-0.026-0.047l0.069-0.009c0,0.021,0.004,0.039,0.013,0.056H310.647z M334.99,161.997
			c-0.677-0.828-1.352-1.661-2.025-2.497c1.562,0.017,3.055,0.442,4.483,1.279C336.63,161.186,335.815,161.589,334.99,161.997z
			 M352.327,210.477c0.253-0.017,0.545,0.137,0.82,0.219c-0.211,0.125-0.417,0.249-0.614,0.369c-0.33-0.099-0.605-0.18-0.875-0.262
			C351.877,210.688,352.083,210.494,352.327,210.477z M279.809,159.547c2.231,0.468,4.466,0.931,6.697,1.394
			c1.06,1.502,2.124,2.999,3.183,4.496c-1.06-1.497-2.124-2.995-3.183-4.496C284.275,160.478,282.04,160.015,279.809,159.547z
			 M342.37,239.69c-1.133,0.189-1.819-0.008-1.742-0.515C340.915,237.304,343.73,236.755,342.37,239.69z M341.979,336.47
			c9.512-2.317,15.78-6.998,25.596-7.826c0.3-0.09,0.579-0.223,0.837-0.403c0.901,3.784,2.892,10.258,6.474,12.214
			C364.01,339.843,352.782,337.925,341.979,336.47z M574.809,336.479c4.153-2.737,5.088-2.737,9.233,0
			C580.966,336.479,577.885,336.479,574.809,336.479z"/>
		<path style="fill:#1A1A1A;" d="M461.966,117.086c0.952,0.76,1.531,1.643,2.27,2.476c2.6-1.982,5.118-2.218,7.555-0.708
			c1.36,3.196-17.123,0.575-14.518-2.48c-11.49-1.587-23.005-0.146-34.546,0.064c0.729,2.789,18.959,0.519,17.573,4.312
			c-5.727,15.75-17.864-4.925-17.778-4.307c-20.461,0.369-40.801,0.408-60.961,3.304c5.161,2.3,12.279,2.248,17.706,2.621
			c-0.596,1.549-0.777,3.089,0.197,4.621c-2.282,0.138-4.564,0.279-6.847,0.421c-0.871,0.399-1.738,0.798-2.604,1.193
			c-2.548,3.063-3.87,4.136-7.547,1.553c-3.325-0.395-5.174-2.111-5.556-5.153c-1.634-0.785-2.055-1.682-0.901-2.733
			c-0.129-0.253-0.257-0.506-0.39-0.759c-10.567,3.535-27.008,7.324-38.304,9.585l-1.441,1.768c0,0,0.489,0.172,1.249,0.429
			c-0.648,0.056-1.266,0.232-1.845,0.523c4.192-3.835-26.188-27.844-41.448-4.908c4.355,17.479,18.165,12.489,8.387,0.669
			c16.149-21.722,24.288,9.49,32.628,4.565c-4.711,4.959,64.106,5.83,63.016,5.865c0.776-0.558,1.484-1.193,2.128-1.909
			c1.806,0.489,2.63,1.141,2.844,1.888c22.713,2.377,46.898,4.273,69.765,5.256c-12.146,5.569-24.635,24.416-32.405,35.344
			c2.159-0.146,4.329-0.27,6.483-0.429c-0.06,0.463-0.099,0.931-0.142,1.403c3.531-5.487,32.521-32.967,31.336-36.21
			c0.927-0.086,5.333-0.944,3.724-3.042c5.367-6.929,16.149-25.214,16.149-25.214C472.516,117.888,467.149,117.919,461.966,117.086z
			 M381.313,127.872c-2.051,1.926-3.067,3.038-3.012,3.964C378.246,130.905,379.262,129.794,381.313,127.872l0.034-0.352
			L381.313,127.872z M444.504,138.066c-4.792,0.772-0.536-3.866,0.922-0.914C445.131,137.465,444.946,137.997,444.504,138.066z"/>
		<path style="fill:#1A1A1A;" d="M293.173,836.17c-11.061-16.024-9.327-37.201-10.348-55.602c-0.944,0.094-1.45-0.553-1.527-1.952
			c0.266-0.485,0.846-0.922,1.347-1.373c-0.292-7.195-0.583-14.385-0.871-21.58c-2.376-1.716-3.286-3.866-2.969-6.384
			c0.888,0.446,1.802,0.819,2.746,1.12c-1.184-31.07-0.789-62.227-1.39-93.31c-1.386,1.54-2.96,2.317-4.724,2.334
			c0.841,15.342,1.75,30.624,1.437,46.005c0.704,0.09,1.279,0.399,1.729,0.922c-0.712,1.029-0.399,1.098-1.78,1.244
			c-0.927,30.431-1.549,62.651,1.184,92.988c1.167,12.965,2.249,26.355,9.632,37.617c2.634,4.024,26.402,28.655,35.125,18.843
			C319.395,860.629,294.451,838.023,293.173,836.17z M278.174,762.497c-0.185-0.034-0.258-0.249-0.378-0.386
			c0.257-0.064,0.51-0.133,0.768-0.197C279.092,762.33,278.959,762.527,278.174,762.497z"/>
		<path style="fill:#1A1A1A;" d="M273.382,500.686c-1.476,34.288,0.751,68.769,1.673,103.057c1.446,0.819,1.476,1.986,0.095,3.505
			c0.403,14.973-0.108,30.028,0.081,45.01c0.3,0.223,0.563,0.485,0.764,0.807c1.215,1.231,2.596,2.205,4.153,2.926
			c-0.523-50.733-2.137-102.701,0.553-153.301C278.071,502.767,275.63,502.097,273.382,500.686z"/>
		<path style="fill:#1A1A1A;" d="M328.89,410.568c-0.032-0.095-0.063-0.188-0.095-0.283c-0.095,0.088-0.204,0.181-0.312,0.274
			C328.619,410.559,328.752,410.574,328.89,410.568z"/>
		<path style="fill:#1A1A1A;" d="M273.438,499.467c2.621,0.125,5.226,0.271,7.397,0.876c0.086-1.463,0.18-2.922,0.283-4.419
			c1.064-17.337,3.544-34.867,12.352-50.094c-3.184,0.129-1.678-2.175,1.076-1.746c5.226-8.276,10.923-16.32,18.316-22.825
			c2.241-1.978,12.122-7.69,15.621-10.7c-1.49-0.001-2.902-0.35-4.226-1.089C285.845,419.346,274.999,466.115,273.438,499.467z"/>
		<path style="fill:#1A1A1A;" d="M328.259,408.693c0.179,0.528,0.357,1.06,0.535,1.592
			C330.046,409.136,330.18,408.462,328.259,408.693z"/>
		<path style="fill:#1A1A1A;" d="M622.14,863.036c0.665,0.596,0.768,1.36,0.901,2.106c-0.206,0.88-0.991,1.514-1.862,1.613
			c-0.09,0.867-0.365,1.69-0.832,2.471c-5.947,10.786-41.973,5.088-50.386,5.337c-24.747,0.738-49.54,1.866-74.282,1.896
			c-35.974,0.043-71.97-0.858-107.97-0.648c-9.73,0.056-20.275,1.596-29.963,0.446c-7.122-0.845-31.864-15.677-31.817-15.681
			c-9.846,0.901,20.285,21.692,25.939,22.816c9.524,1.888,19.688,0.476,29.273,0.249c31.649-0.759,63.342-1.394,94.97-2.016
			c33.413-0.656,66.809-2.179,100.26-2.287c9.799-0.034,28.86,4.603,37.776-0.039C616.833,877.902,632.003,859.895,622.14,863.036z
			 M356.952,880.57c-1.669-1.416-1.519-2.596,0.455-3.539c5.976-1.025,9.82,1.077,11.532,6.302
			C364.521,882.994,362.062,880.3,356.952,880.57z"/>
		<path style="fill:#1A1A1A;" d="M669.222,598.783c-0.004-2.162-0.017-4.303-0.03-6.44c-0.245-0.146-0.485-0.292-0.747-0.433
			c-2.596,1.146-4.011,1.703-5.251,1.536c0.412,15.921-0.008,31.8,0.116,47.721c1.72-0.073,3.428-0.228,5.132-0.476
			c0.141-13.377,0.862-26.716,0.793-40.097C667.638,599.659,667.634,599.054,669.222,598.783z"/>
		<path style="fill:#1A1A1A;" d="M755.573,548.784c0.498,0.077,1.004,0.142,1.514,0.21c0.017-0.45,0.039-0.897,0.056-1.347
			C756.847,548.055,756.25,548.437,755.573,548.784z"/>
		<path style="fill:#1A1A1A;" d="M668.737,498.755c-1.613,0.785-3.209,1.579-4.05,2.703c-0.807,0.369-1.608,0.742-2.415,1.116
			c-0.3-0.451-0.566-0.91-0.858-1.36c0.326,6.732,0.48,13.463,0.459,20.203c0.198,20.156,0.506,40.307,1.025,60.459
			c1.952-0.648,4.042-0.927,6.191-1.042C668.793,553.525,670.037,526.029,668.737,498.755z"/>
		<path style="fill:#1A1A1A;" d="M660.77,493.259c0.197,1.562,0.348,3.124,0.446,4.694
			C663.851,496.589,663.88,494.401,660.77,493.259z"/>
		<path style="fill:#1A1A1A;" d="M801.959,721.044c0.064,3.166,0.069,6.289-0.175,9.361c-5.226,64.35-84.39,63.093-131.408,67.705
			c1.249-17.063-0.819-34.61-1.244-51.689c5.251,0.961,10.966,1.18,16.367,1.553c-0.279-0.21-0.215-0.416,0.193-0.622
			c0.133,0.017,1.506,0.309,0.708,0.678c15.788,0.927,31.075-0.939,46.099-5.818c0.309-0.356,0.699-0.712,1.197-1.068
			c0.3,0.12,0.592,0.24,0.883,0.361c20.666-7.281,32.997-25.175,31.615-46.841c-0.026-0.021-0.06-0.034-0.082-0.056
			c-1.45-0.412-2.883-0.481-4.312-0.399c3.175,54.216-59.159,43.109-92.748,49.017c-0.575-23.022,0.807-46.052,0.031-69.057
			c-0.121-0.056-0.245-0.116-0.365-0.172c0.133-0.021,0.232-0.039,0.356-0.056c-0.326-9.576-0.785-19.049-0.682-28.642
			c-1.72-0.819-3.406-0.854-5.054-0.107c0.219,27.621,3.179,55.461,1.03,83.09c0.009-0.111-0.013-0.219-0.017-0.33
			c0.077,4.977,0.142,9.954,0.202,14.93c7.744,4.269,2.72,6.727,0.107,7.589c0.099,5.273,0.275,10.353,0.309,15.239
			c1.21,0.562,1.064,1.695,0.017,2.24c-0.03,21.297,1.703,43.885-8.104,63.659c-1.355,2.724-28.586,36.588-33.314,29.629
			c9.267,15.226,38.518-25.978,40.942-32.598c-3.042-1.304,0.026-2.008,0.704-1.982c2.87-8.55,4.132-17.474,4.99-26.411
			c54.32,21.383,138.161-21.576,136.042-81.692C804.538,719.204,803.289,720.148,801.959,721.044z"/>
		<path style="fill:#1A1A1A;" d="M662.941,583.531c0.056,2.283,0.116,4.591,0.176,6.908c2.236,0.129,4.26,0.764,6.075,1.905
			c-0.013-1.75-0.026-3.488-0.043-5.221C666.248,586.423,663.837,585.424,662.941,583.531z"/>
		<path style="fill:#1A1A1A;" d="M795.979,471.546c-16.706-43.95-106.833-69.983-140.07-28.003
			c-6.843-15.153-19.186-28.831-34.606-35.747c-1.141,0.695-2.969,1.189-4.749,1.33c7.036,4.586,13.467,10.4,19.118,16.616
			c2.201-2.797,5.758,2.467,2.038,2.415c2.214,2.724,4.307,5.556,6.174,8.534c0.592,0.326,0.901,0.862,0.927,1.609
			c7.997,14.214,12.275,30.937,14.875,46.871c9.095,0.738,3.484,8.658,8.859,10.34c-0.086-1.025-0.172-2.051-0.262-3.08
			c44.971-26.274,82.738,2.926,82.326,52.517c0.768-0.425,5.998,0.94,6.564,1.772c0.746-21.22-4.256-44.928-19.688-60.707
			c-4.127,0.283-4.977-2.502-1.442-1.189c0.064-0.017,0.111-0.039,0.172-0.056c-18.478-17.092-50.54-12.214-68.443,3.205
			c-1.904-14.922-5.5-29.23-11.284-43.109c9.997-3.985,19.444-8.555,30.101-10.58c-4.274-1.184-6.496-3.136-0.408-3.57
			c1.459-1.677,2.69-3.475,6.822-3.728c1.429,1.785,2.99,0.57,4.522,0.064c0.039,1.862,0.073,3.728,0.107,5.594
			c18.178-1.845,39.197,0.27,56.087,7.169c1.188-0.493,8.581,1.553,6.307,2.836c54.976,26.784,39.514,124.912,40.505,175.396
			c2.943,0.292,2.956,0.91,0.039,1.858c0.605,31.135,0.772,62.231,1.219,93.361c1.755,0.064,3.098,0.463,4.337,0.948
			c-0.828-29.963-0.386-60.506-0.515-90.547c-0.871-0.223-1.647-0.558-2.351-0.982c1.021-0.202,1.767-0.347,2.347-0.416
			C805.404,575.071,813.414,516.255,795.979,471.546z M732.152,487.605c5.298,0.991-0.146,1.437-1.322,1.424
			C731.268,488.553,731.71,488.077,732.152,487.605z"/>
		<path style="fill:#1A1A1A;" d="M756.838,554.186c-2.085,0.476-4.08,0.326-5.989-0.446c-0.069-2.132,0.712-3.998,2.338-5.599
			c-0.867-0.635-1.785-1.253-2.595-1.905c-0.339,25.377-0.763,51.063,1.308,76.389c1.669-0.129,3.342-0.275,5.015-0.369
			c-0.202-3.364-0.382-6.719-0.51-10.065C755.234,593.275,755.881,573.072,756.838,554.186z"/>
		<path style="fill:#1A1A1A;" d="M612.71,406.179c0.952-0.15,1.909-0.257,2.875-0.317
			C613.281,404.875,612.324,404.982,612.71,406.179z"/>
		<path style="fill:#1A1A1A;" d="M761.613,674.49c0.575-0.609,1.266-0.871,2.076-0.781c-0.175-1.446-0.382-2.913-0.601-4.397
			c-1.219-0.618-1.309-1.214-0.27-1.794c-2.05-12.176-4.238-25.15-5.384-37.458c-1.686-0.082-3.342-0.249-4.93-0.601
			c1.733,18.478,6.049,36.969,8.267,55.439c2.656,0.515,2.583,2.986,4.81,3.522c-0.622-4.226-1.171-8.465-1.643-12.708
			C762.875,675.464,761.939,675.022,761.613,674.49z"/>
		<path style="fill:#1A1A1A;" d="M356.01,417.086c0.021,0.063,0.072,0.123,0.147,0.182
			C356.086,417.207,356.033,417.146,356.01,417.086z"/>
		<path style="fill:#1A1A1A;" d="M366.662,419.925c0.896-0.663,1.833-1.118,2.81-1.374c-7.612-0.162-12.413-0.568-13.316-1.283
			C357.403,418.359,365.659,419.772,366.662,419.925z"/>
		<path style="fill:#1A1A1A;" d="M356.01,417.086c-0.012-0.035-0.019-0.071-0.014-0.108
			C355.99,417.013,355.995,417.05,356.01,417.086z"/>
		<path style="fill:#1A1A1A;" d="M372.243,418.351c-0.959-0.104-1.881-0.034-2.771,0.2c2.805,0.06,5.992,0.086,9.505,0.083
			C373.981,416.185,366.537,414.172,372.243,418.351z"/>
		<path style="fill:#1A1A1A;" d="M572.852,409.778c-0.004,0.015-0.008,0.029-0.012,0.044
			C573.571,409.699,573.435,409.686,572.852,409.778z"/>
		<path style="fill:#1A1A1A;" d="M378.977,418.634c2.513,1.232,4.409,2.574,3.695,3.295c4.157,0.609,31.547,1.652,31.765,1.051
			c50.729,0.678,101.877-3.587,152.195-9.782c-1.056-1.984,4.511-3.153,6.22-3.421c0.04-0.153,0.082-0.305,0.125-0.458
			C555.755,411.941,431.227,418.588,378.977,418.634z"/>
		<path style="fill:#1A1A1A;" d="M406.449,422.826c0.673-0.013,1.347-0.009,2.017,0.013c-0.528-0.172-1.06-0.343-1.596-0.506
			C406.724,422.495,406.587,422.663,406.449,422.826z"/>
		<path style="fill:#1A1A1A;" d="M572.977,409.32c-0.047,0.167-0.094,0.335-0.137,0.502c0.446,0.043,0.892,0.073,1.344,0.099
			c-0.056,1.038-0.88,1.802-1.983,2.463c-1.137,0.189,16.273-2.188,16.157-4.05C588.272,406.836,575.428,408.951,572.977,409.32z"/>
		<path style="fill:#1A1A1A;" d="M611.612,360.007c-0.03-2.094-0.051-4.2,0.03-6.294c10.829-2.81,2.27-13.098,3.338-14.257
			c-1.124,1.167,0.541,4.831-0.262,6.521c-1.339,2.758-3.711,4.32-6.74,4.453c-0.009,4.277,0.206,8.559,0.648,12.815
			c17.264,2.879,1.587,9.353,4.633,16.921c-0.232,0.12-0.455,0.258-0.656,0.421l0.995,0.678c0.099,0.536,0.047,1.188-0.013,1.725
			c0.391-0.399,0.867-0.656,1.429-0.764l1.021,0.695c0.022-0.171,0.004-0.326,0.013-0.498c0.614,0.369,0.987,0.867,1.12,1.497
			c0.369-0.48,1.116-1.012,2.317-1.604c-0.266-0.528-3.325-2.613-3.917-2.643C613.765,375.469,628.996,362.071,611.612,360.007z"/>
		<path style="fill:#1A1A1A;" d="M617.21,385.5c-0.373,2.179-5.56,6.109-4.865,7.654c1.395,3.128,7.293-5.474,7.56-6.521
			c-1.266-0.373-2.218-0.798-2.686-1.291C617.21,385.393,617.219,385.453,617.21,385.5z"/>
		<path style="fill:#1A1A1A;" d="M331.61,362.066c-0.434-7.971,1.475-17.509-0.048-25.279c0.15,0.832-3.887,18.169-3.424,24.034
			c-8.069,9.104,1.42,15.805,2.922,25.09c0.85,5.247-2.668,9.143-2.445,12.944c0.322,5.521,7.397,6.688,7.1,5.526
			C333.999,397.714,326.654,367.798,331.61,362.066z"/>
		<path style="fill:#1A1A1A;" d="M551.188,634.805c-0.219-0.099-0.408-0.21-0.575-0.335c-0.819,2.141-1.068,4.423-1.116,6.693
			c0.815-0.592,1.772-0.802,2.87-0.626c0.108-1.33,0.369-2.63,0.562-3.947C552.097,636.195,551.517,635.603,551.188,634.805z"/>
		<path style="fill:#1A1A1A;" d="M547.935,640.751c-1.122-0.874-17.479,23.85-22.269,29.964c-0.349,2.217-0.793,4.057-1.35,5.44
			C529.98,674.618,549.33,641.824,547.935,640.751z"/>
		<path style="fill:#1A1A1A;" d="M524.085,676.331c0.051,0.008,0.099,0.024,0.15,0.032c0.027-0.065,0.053-0.14,0.08-0.208
			c-0.068,0.019-0.145,0.054-0.209,0.064C524.098,676.258,524.085,676.331,524.085,676.331z"/>
		<path style="fill:#1A1A1A;" d="M555.359,641.057c-0.576-0.346-1.268-0.512-2.091-0.477
			C553.3,640.648,554.073,640.819,555.359,641.057z"/>
		<path style="fill:#1A1A1A;" d="M580.164,672.135c-1.266,0.163-2.514,0.013-3.749-0.451c-9.877,4.818-18.758,14.763-30.08,14.437
			c-8.776-0.256-14.303-8.445-22.099-9.758c-0.178,0.419-0.364,0.805-0.566,1.126C534.438,703.287,566.731,680.771,580.164,672.135z
			"/>
		<path style="fill:#1A1A1A;" d="M557.043,586.059c-0.244,0.23-0.453,0.475-0.644,0.727c0.685-0.107,1.369-0.216,2.053-0.332
			C558.275,585.676,557.877,585.3,557.043,586.059z"/>
		<path style="fill:#1A1A1A;" d="M525.666,670.715c1.293-8.213,1.332-21.383,1.38-33.898c-1.379,11.718-2.128,23.524-2.476,35.159
			C524.787,671.795,525.164,671.356,525.666,670.715z"/>
		<path style="fill:#1A1A1A;" d="M510.966,569.253c-5.174-2.467-44.396-17.534-44.366-17.968
			c-0.562,7.89,34.013,15.527,40.016,18.65c-23.476,3.707-46.588,8.019-70.45,9.559c2.78-3.419,29.568-27.201,29.409-27.591
			c-0.716-1.746-5.088,1.292-5.775,1.729c0,0.459-0.262,0.927-0.939,1.399c-0.451,0.318-1.022,0.373-1.644,0.219
			c-9.327,6.41-17.672,16.492-25.682,24.515c-36.712,1.952-77.2-2.557-110.793,15.479c0.631,0.051,1.258,0.103,1.888,0.154
			c0.154,1.369-1.519,2.068-3.398,2.694c-0.747-0.42-1.103-0.862-1.201-1.321c-2.227,1.086-3.985,2.69-5.289,4.798
			c3.763-2.481,109.038-14.832,111.821-14.979c-1.214,1.107-9.168,7.517-8.061,8.679c2.986,3.14,12.013-7.521,13.48-8.98
			c16.706-0.991,33.837-3.235,50.347-6.1c0.682-0.815,2.415-1.27,5.8-2.064c0.18,0.33,0.343,0.652,0.476,0.974
			c8.954-1.566,17.659-4.303,26.643-5.856c0.789,0.232,2.403,0.622,2.789-0.459c38.317-6.217,74.591-8.585,112.685-0.476
			c-10.777,0.54-21.459,3.153-31.903,5.715c0.378,4.908-7.984,1.987-10.421,2.716c0,0,0.026,0.013,0.038,0.021
			c-0.721,0-1.673,0.412-2.368,0.579c-12.399-2.299-35.447-0.738-47.331,2.712c-0.257-0.245-0.541-0.18-0.854,0.201
			c-0.708,0.12-2.381,0.579-1.339,1.583c-3.355,4.771-4.788,11.575-5.44,17.264c-14.467,6.423-29.637,12.223-44.345,18.165
			c-0.566-3.398-2.557-1.343-2.866,1.051c-2.012,0.691-4.028,1.373-6.044,2.046c1.557-1.15,3.496-3.51,3.693-5.47
			c-0.583,0.052-25.424-6.174-33.807-7.628c-1.394,0.631-2.449,0.541-3.166-0.27c-0.549-0.039-25.905-2.887-25.999-1.223
			c-0.206,3.617,53.86,8.34,60.24,8.971c-1.858,1.987-3.625,4.544-4.895,6.89c-25.523,8.13-50.377,12.141-76.792,14.016
			c-1.3,0.094-15.514-6.002-8.203-0.06c-1.587-0.086-3.14-0.18-4.651-0.343c-0.12-1.382-0.107-2.883-0.463-4.226
			c3.595-1.99,5.521-4.642,8.323-7.71c-1.716-0.167-2.879-0.652-3.141-1.647c-2.119,1.896-3.913,4.097-6.195,5.727
			c-1.33-5.513-2.544,5.436-2.531,7.388c-3.145-0.339-6.28-0.742-9.409-1.214c-0.425-0.665-1.815-1.188-2.304-0.296
			c-4.47-0.571-9.091-1.871-13.429-3.089c1.519-2.201,14.072-16.277,13.184-17.148c-2.956-2.887-15.497,13.484-16.981,15.981
			c-7.323-2.454-14.342-6.727-20.331-11.545c-4.484-3.604-19.856-24.03-17.737-14.364c-13.158,17.14-5.007,63.355-3.724,81.545
			c0.043-0.008,0.077-0.021,0.12-0.03c0.288-0.253,0.575-0.511,0.867-0.768c-0.258,0.275-0.506,0.545-0.763,0.819
			c1.454,1.171,1.454,2.356,0.004,3.548c1.802,27.857,5.659,60.27,2.385,87.977c1.172-0.069,1.862,0.515,2.076,1.746
			c-0.472,1.738-1.261,2.064-2.368,0.982c-0.381,4.355-1.991,30.178,3.265,30.392c1.038,0.043,0.879-185.963,0.617-199.16
			c5.921,11.335,19.354,21.293,31.217,25.673c-3.561,5.813-6.582,11.892-9.328,18.122c1.03,0.163,1.939,0.498,2.721,0.952
			c2.994-6.152,6.212-12.274,10.129-17.903c5.637,1.708,11.704,3.222,17.551,3.87c-0.751,1.163-4.822,14.626-4.539,14.776
			c6.8,3.565,5.5-12.665,6.753-14.523c4.024,0.536,8.066,0.97,12.116,1.296c1.592,6.56,3.947,13.004,6.002,19.422
			c0.862-0.039,1.729-0.094,2.583-0.094c-1.583-6.324-3.462-12.674-4.767-19.066c18.324,0.892,47.232,13.828,64.801,12.202
			c-4.449,3.076,3.338,13.459,4.174,17.303c1.789,0.347,2.81,0.609,3.252,0.969c0.609-1.587-7.272-18.602-6.229-18.864
			c0.643-1.605-32.1-11.356-36.639-12.755c4.161-0.493,8.289-1.163,12.386-2.008c-0.017-0.017-0.034-0.034-0.034-0.034
			c12.953,0.146,28.724-7.002,41.251-10.76c-0.489,1.15-16.016,21.001-14.668,21.936c5.56,3.883,15.942-20.718,18.122-23.082
			c3.591-1.223,7.165-2.501,10.726-3.827c0.391,4.694,2.866,47.339,5.805,48.39c1.124,0.395-2.227-46.884-1.896-49.87
			c14.438-5.796,28.47-12.506,43.006-18.174c-1.087,5.951-1.14,17.042-1.184,28.711c1.208-10.266,2.899-20.465,5.247-30.418
			c7.028-3.068,14.128-5.989,21.212-8.924c0.227,7.345,0.549,19.096-1.644,26.265c0.438,0.403,1.025,0.725,1.935,0.897
			c2.651-8.941,2.617-19.469,3.617-28.728c8.748-3.385,16.943-6.624,26.029-8.683c4.333,20.906,15.831,39.758,18.496,61.377
			c-2.085-0.515-4.621-1.952-6.714-2.038c0.107,0.034,0.21,0.073,0.3,0.099c-0.574,0.794-1.24,0.965-1.995,0.51
			c0.313-0.219,0.618-0.442,0.965-0.644c-4.749-0.129-31.441-4.05-39.134-5.473c0.696,0.419,1.218,1.107,1.551,2.084
			c11.936,3.96,33.168,8.061,45.82,8.409c0.339,1.038,0.532,2.51,1.128,3.424c-3.707-0.167-12.867,6.427-15.539,8.551
			c0,0.021,0.004,0.043,0.004,0.043c0.94,0.631,0.858,1.399-0.249,2.334c-0.656,0.824-4.732,1.403-6.358,2.544
			c0.249,0.751,0.751,1.51,0.639,2.248c1.875-1.231,23.155-12.21,22.172-15.291c6.431-1.502-14.784-62.407-18.753-68.705
			c7.984-1.794,15.995-3.66,23.944-5.616c-0.043-0.056-0.086-0.112-0.129-0.172c-3.853-0.755-3.908-1.626-0.167-2.604
			c0.056,0.867,0.112,1.738,0.172,2.604c0.039,0.06,0.081,0.116,0.124,0.172c2.398-0.579,26.545-4.26,26.518-7.504
			c-1.013-0.06-30.71-11.498-42.457-12.249C566.247,559.579,538.188,565.045,510.966,569.253z M363.8,643.87
			c-0.772-0.352-1.549-0.704-2.325-1.06c0.777-0.06,1.553-0.125,2.325-0.185C363.8,643.038,363.8,643.454,363.8,643.87z
			 M577.105,583.583c-5.924-0.223-13.664,4.672-18.658,6.693c0.033-0.552,0.273-2.649,0.005-3.822
			c-0.683,0.116-1.368,0.225-2.053,0.332c-1.18,1.556-1.484,3.493-2.312,5.279c-6.937,3.098-13.892,6.161-20.859,9.194
			c1.025-4.805,2.33-9.447,3.381-14.252c5.532,1.498,12.656,0.899,19.79-0.221c0.191-0.252,0.401-0.497,0.644-0.727
			c0.834-0.759,1.232-0.383,1.409,0.395c6.085-1.031,12.068-2.335,16.963-2.935c-0.103-0.004-0.21-0.009-0.313-0.013
			c0.661-2.261,2.244,0.111,3.051-0.652C577.954,583.047,577.401,583.356,577.105,583.583z"/>
		<path style="fill:#1A1A1A;" d="M312.629,601.731c0.034-0.058,0.078-0.105,0.113-0.162
			C312.653,601.628,312.601,601.683,312.629,601.731z"/>
		<path style="fill:#1A1A1A;" d="M388.293,670.028c0.09,0.219,0.167,0.446,0.24,0.686c0.292,0.905,0.583,1.815,0.867,2.724
			c0.407,0.081,0.879,0.27,1.3,0.377c-0.339,0.309-0.579,0.781-1.038,0.88c0.197,1.386,6.508,23.193,9.138,22.357
			c2.013-0.639-7.482-25.557-8.456-27.887C389.769,669.496,389.065,669.788,388.293,670.028z"/>
		<path style="fill:#1A1A1A;" d="M549.815,643.557c0.484,1.098,1.544,0.588,1.879-0.176c-0.867-0.275-1.609-0.648-2.175-1.158
			C549.574,642.772,549.677,643.231,549.815,643.557z"/>
		<path style="fill:#1A1A1A;" d="M361.191,706.989c0.099-0.02,0.23-0.054,0.376-0.096c-2.277-4.215-7.206-10.635-12.541-17.279
			C353.072,695.387,357.17,701.132,361.191,706.989z"/>
		<path style="fill:#1A1A1A;" d="M336.179,662.718c-0.841-0.292-1.725-0.536-2.69-0.695c-0.275,0.536-0.536,1.111-0.755,1.63
			c-0.493,1.146-0.982,2.287-1.476,3.428c3.296,4.972,10.862,13.932,17.769,22.534c-5.183-7.395-10.277-14.836-14.993-22.628
			C334.681,665.532,335.398,664.108,336.179,662.718z"/>
		<path style="fill:#1A1A1A;" d="M361.567,706.893c0.662,1.224,1.111,2.272,1.267,3.073c3.012,0.425,23.193-9.383,21.511-12.197
			C384.346,697.769,365.345,705.821,361.567,706.893z"/>
		<path style="fill:#1A1A1A;" d="M387.538,625.169c1.176-0.086,2.351-0.176,3.522-0.262c0.137,0.27,0.322,0.536,0.498,0.802
			c2.214-2.6,20.203-13.441,19.787-14.63C410.037,607.381,389.572,623.354,387.538,625.169z"/>
		<path style="fill:#1A1A1A;" d="M637.452,712.429c-0.009,0.931-1.416-2.651-1-3.17c0.892-0.528,1.785-1.051,2.677-1.579
			c-0.129-3.119,2.643-133.021-1.017-133.145c-10.185-0.378-5.676,74.707-5.483,79.504c5.659-3.243,2.626,6.448,0.124,3.033
			c0.708,16.672-0.785,36.232,1.943,52.792c0.326,0.116,0.652,0.236,0.974,0.352c-0.322-0.116-0.648-0.236-0.974-0.352
			c0.129,0.785,0.249,1.562,0.365,2.321c0.295-0.382,0.621-0.764,1.008-1.15c-0.386,0.386-0.712,0.768-1.008,1.15
			c1.419,9.375-3.124,100.805,3.951,101.131c2.553,0.124,2.356-9.048,2.428-10.554c-0.069-0.03-0.146-0.047-0.215-0.082
			c0.086-0.026,0.142-0.043,0.223-0.069c1.622-28.968-1.085-58.421-1.579-87.406C638.169,714.6,637.439,713.703,637.452,712.429z"/>
		<path style="fill:#1A1A1A;" d="M607.797,826.285c1.471,0.322,2.947,0.343,4.29-0.035
			C610.831,826.221,609.394,826.238,607.797,826.285z"/>
		<path style="fill:#1A1A1A;" d="M598.985,828.267c-0.669-0.48-1.334-0.961-2.004-1.446c-75.591,6.899-155.794,12.605-231.509,4.102
			c0.129,0.459,0.253,0.918,0.378,1.377c-0.124-0.459-0.249-0.918-0.378-1.377c-5.783-0.708-51.823-16.084-49.664-17.268
			c-11.305,6.131,38.763,23.858,43.933,24.532c29.299,3.818,59.33,1.66,88.719,0.944c52.076-1.27,114.774,4.552,165.237-9.001
			C608.647,830.408,603.584,830.176,598.985,828.267z"/>
		<path style="fill:#1A1A1A;" d="M402.953,697.383c13.669,5.101,35.786-5.457,48.399-9.486c-0.082-0.309-0.155-0.618-0.249-0.931
			c0.785,0.004,1.574,0.009,2.36,0.017c-0.034,0.12-0.056,0.245-0.086,0.369c2.643-0.631,32.126-6.671,31.349-9.876
			C484.318,675.794,405.368,698.331,402.953,697.383z"/>
		<path style="fill:#1A1A1A;" d="M544.007,755.799c-0.96,1.547-1.89,2.803-2.782,3.669
			C542.316,758.432,543.222,757.182,544.007,755.799z"/>
		<path style="fill:#1A1A1A;" d="M568.31,706.097c-4.399,5.7-8.819,15.612-13.027,25.449c5.2-8.933,11.539-17.075,17.639-25.471
			C571.339,705.505,569.803,705.509,568.31,706.097z"/>
		<path style="fill:#1A1A1A;" d="M554.379,733.091c-1.089,0.086-2.458,2.669-2.385,3.694c-3.538,5.004-4.686,13.204-7.986,19.013
			c3.427-5.523,7.254-14.85,11.275-24.253C554.982,732.062,554.671,732.57,554.379,733.091z"/>
		<path style="fill:#1A1A1A;" d="M569.747,703.952c2.733-0.288,4.003-0.391,4.823,0.056c1.128-1.497,9.039-8.405,7.723-9.683
			C579.769,691.892,571.038,701.961,569.747,703.952z"/>
		<path style="fill:#1A1A1A;" d="M539.157,767.242c1.154,4.191,25.733,35.193,28.625,32.507
			C567.67,799.852,537.188,759.151,539.157,767.242z"/>
		<path style="fill:#1A1A1A;" d="M568.958,801.011c4.713,7.459,24.892-11.256,37.219-24.152
			c-6.851,6.068-15.098,10.142-23.434,14.893C581.606,792.353,568.168,799.767,568.958,801.011z"/>
		<path style="fill:#1A1A1A;" d="M612.653,769.84c0.677-0.764,1.262-1.439,1.745-2.007c-0.127,0.027-0.248,0.056-0.388,0.078
			C613.571,768.576,613.117,769.215,612.653,769.84z"/>
		<path style="fill:#1A1A1A;" d="M612.653,769.84c-1.676,1.893-3.905,4.329-6.477,7.02
			C608.515,774.788,610.693,772.486,612.653,769.84z"/>
		<path style="fill:#1A1A1A;" d="M614.398,767.833c1.472-0.316,1.987-0.963,1.529-1.948
			C615.878,766.034,615.335,766.73,614.398,767.833z"/>
		<path style="fill:#1A1A1A;" d="M615.915,765.852c0.005,0.011,0.007,0.021,0.012,0.033
			C615.935,765.861,615.933,765.847,615.915,765.852z"/>
		<path style="fill:#1A1A1A;" d="M588.967,696.298c-1.373,0.875,5.625,11.502,6.35,12.498c0.79-0.326,1.639-0.627,2.518-0.914
			c-0.026-0.039-0.055-0.077-0.081-0.116C596.643,706.221,591.903,694.444,588.967,696.298z"/>
		<path style="fill:#1A1A1A;" d="M617.236,752.887c-0.283-1.017,0.537-2.171-0.776-3.059c1.313,0.888,0.493,2.042,0.781,3.055
			c1.038-0.077,2.077-0.15,3.11-0.223c-4.024-14.119-12.184-29.65-20.486-41.779c-0.751,0.309-1.501,0.614-2.256,0.91
			c8.469,11.284,11.373,25.51,18.148,37.673c-0.19,0.116-0.374,0.232-0.558,0.347c0.725,1.759,3.243,14.081,4.723,13.725
			c2.295-0.549,0.717-7.568,0.652-9.327C619.707,753.998,618.643,753.565,617.236,752.887z"/>
		<path style="fill:#1A1A1A;" d="M345.768,725.158c-2.755-0.283-4.166,11.211-4.098,13.459c0.39,14.862,1.038,29.886,3.076,44.576
			c0.176,0.026,0.382,0.094,0.57,0.142c-0.103,0.309-0.27,0.429-0.502,0.365c0.227,1.626,1.69,23.481,4.719,23.09
			C347.9,806.996,344.082,724.996,345.768,725.158z"/>
		<path style="fill:#1A1A1A;" d="M350.195,727.424c5.015,4.453,69.228,15.857,70.232,13.497
			C420.677,740.333,345.695,723.382,350.195,727.424z M367.622,730.968c1.133-0.202,1.978,0.137,2.3,0.79
			C368.3,733.473,365.975,731.264,367.622,730.968z"/>
		<path style="fill:#1A1A1A;" d="M365.649,822.123c0.017,3.724,17.878-2.158,18.701-2.252c0.245-0.352,0.583-0.399,0.97-0.571
			c0.318,0.099,0.708,0.172,1.047,0.262c3.201-0.789,7.01-1.918,9.941-3.222c0.072-0.03,23.343-10.919,21.798-13.034
			C417.48,802.448,365.662,824.873,365.649,822.123z"/>
		<path style="fill:#1A1A1A;" d="M382.823,771.005c-3.141-3.874-37.197-33.095-36.883-33.396
			c-3.518,3.364,32.049,36.485,36.682,35.404c-1.189,3.801,0.87,41.933,3.178,41.95c1.047,0.009,0.073-39.398-0.103-42.963
			c12.807-2.608,24.099-19.907,34.841-27.158c-5.586,5.183-1.986,54.307,0.802,54.161c2.085-0.107-3.055-53.504-0.103-54.637
			c0.94-0.665,4.123-3.17,3.102-4.586C424.447,739.926,384.573,767.023,382.823,771.005z"/>
		<path style="fill:#1A1A1A;" d="M581.417,702.278c-0.974,1.33-2.385,4.011-2.677,5.689c3.741,0.794,3.548,1.081,1.84,3.501
			c-0.939-0.283-1.66-0.502-2.222-0.7c-1.21,14.064-7.362,29.53-7.075,43.431c-2.729,0.927-22.069,15.222-22.142,15.093
			c4.419,7.641,28.848-19.238,25.15-16.796c1.176-9.477,3.488-18.667,5.208-28.007c-3.527-1.665-3.239-1.909,0.596-3.612
			C580.636,718.255,585.462,696.83,581.417,702.278z"/>
		<path style="fill:#1A1A1A;" d="M482.079,738.969c0.884,2.072,1.802,4.222,2.738,6.406c0.785-0.24,1.771-0.433,2.964-0.588
			c-1.24-3.046-2.42-6.114-3.54-9.207C483.546,736.712,482.821,737.841,482.079,738.969z"/>
		<path style="fill:#1A1A1A;" d="M537.518,733.37c-1.686-10.31-5.891-32.512-13.776-39.526c-9.301-8.268-20.709-4.303-33.571-1.446
			c-2.287,0.506-18.598,1.72-18.375,3.484c0.772,6.062,45.996-5.08,46.258-4.96c11.532,5.333,12.322,32.778,17.273,43.349
			c-14.827,7.174-28.47,16.578-42.915,24.433c-1.004-2.673-1.961-5.427-2.673-8.19c-0.601,0.528-1.266,0.944-1.995,1.253
			c-0.15,0.051-0.3,0.094-0.455,0.133c0.978,3.239,2.278,6.419,3.715,9.477c-4.784,0.12-7.306,18.508-5.088,21.207
			c-0.926,0.176-6.723,0.918-6.564,2.051c1.407,10.292,38.085-9.739,38.025-9.679c5.007-5.093,18.744-30.598,17.728-37.579
			c0.583-0.347,1.146-0.729,1.686-1.137c0.395,0.09,0.661-0.12,0.794-0.626C538.471,734.88,540.487,732.551,537.518,733.37z
			 M488.308,782.387c1.657-4.552,1.725-12.129,2.888-17.238c0.189-0.867,2.283-2.536,1.103-3.471
			c12.789-8.237,26.99-14.269,39.81-22.404C519.872,760.065,517.989,783.078,488.308,782.387z"/>
		<path style="fill:#1A1A1A;" d="M468.668,700.077c-0.789,0.146-1.583,0.287-2.39,0.399c-0.309,0.343-0.635,0.746-0.957,1.244
			c-4.908,7.555-4.827,18.337-5.71,26.896c-0.901-0.009-1.399-0.163-1.532-1.004c-0.373,0.073-0.588-0.043-0.695-0.39
			c-0.326-0.313-5.577-7.268-4.87-0.378c0.099,1.244,6.371,4.076,6.895,3.749c-1.72,17.118-0.673,24.562,9.988,38.411
			c0.236,0.107,0.472,0.214,0.717,0.317c-0.133,0.047-0.266,0.09-0.398,0.137c1.235,1.793,7.924,14.909,10.648,13.188
			c1.493-0.952-19.392-29.225-20.366-33.85C456.93,734.292,466.557,714.857,468.668,700.077z"/>
		<path style="fill:#1A1A1A;" d="M468.715,700.069c0.017,0.172,0.034,0.339,0.06,0.523c1.686,11.528,6.886,22.468,11.185,33.168
			c0.665-1.15,1.57-1.961,2.724-2.428c-3.878-10.554-7.375-21.224-11.309-31.718C470.482,699.747,469.598,699.906,468.715,700.069z"
			/>
		<path style="fill:#1A1A1A;" d="M468.934,695.384c0.172,0.034,0.335,0.086,0.506,0.125c-0.167-0.154-0.313-0.223-0.433-0.185
			C469.006,695.324,468.955,695.367,468.934,695.384z"/>
		<path style="fill:#1A1A1A;" d="M374.676,627.987c-2.802-4.861-7.813-2.347-6.517-1.09c1.292,1.463,8.087,5.723,9.1,4.887
			C379.215,630.18,375.328,628.944,374.676,627.987z"/>
		<path style="fill:#1A1A1A;" d="M341.537,662.387c0.39,0.738,0.734,1.497,1.171,2.227c-2.003-0.154-3.604-0.794-5.23-1.42
			c-0.476,6.29,19.259,0.669,19.075,0.111C356.077,661.791,343.013,662.005,341.537,662.387z"/>
		<path style="fill:#1A1A1A;" d="M359.891,663.867c-5.637,1.725,9.095,44.237,8.336,35.232
			C368.043,695.105,361.732,663.301,359.891,663.867z"/>
		<path style="fill:#1A1A1A;" d="M484.782,807.558c-11.377,6.242-21.657-0.755-33.983-1.36c-0.214-1.313-1.248-3.226-1.982-4.505
			c3.617-1.377,7.701-25.021,6.131-25.553c-2.231-0.764-5.753,20.915-7.825,22.674c-1.206-2.308-2.411-4.586-3.454-6.968
			c-1.931,0.691-5.487-2.887-1.399-2.587c-9.044-13.682-12.545-21.181-8.259-35.271c0.305-1.004,22.013-33.567,20.769-34.4
			c-4.205-2.832-19.525,25.506-20.285,27.153c-8.529,18.577-4.822,26.132,5.659,44.001c2.981,4.934,4.217,13.201,9.558,16.419
			c15.269,26.832,59.468-17.032,54.71-21.482C502.003,783.412,487.459,806.086,484.782,807.558z"/>
		<path style="fill:#1A1A1A;" d="M515.436,575.311c-3.226,0.022-4.217,20.615-5.213,22.078
			c-1.416,2.077-24.785,17.513-22.679,17.359c5.063-0.305,17.882-9.962,21.306-13.858
			C508.76,600.997,522.97,575.238,515.436,575.311z"/>
		<path style="fill:#1A1A1A;" d="M425.215,595.639c-2.476,3.797,5.47,6.955,7.53,7.838c2.025-0.086,4.05-0.163,6.08-0.214
			c-0.129-0.15-0.249-0.318-0.386-0.472C438.185,602.495,425.825,594.708,425.215,595.639z"/>
		<path style="fill:#1A1A1A;" d="M449.503,608.381c-0.759,0.511-1.441,1.107-2.046,1.785
			C451.017,613.13,454.591,610.599,449.503,608.381z"/>
		<path style="fill:#1A1A1A;" d="M500.52,463.148c0.025-0.003,0.045-0.008,0.072-0.011
			C500.533,463.144,500.514,463.147,500.52,463.148z"/>
		<path style="fill:#1A1A1A;" d="M658.14,551.925c-0.094-4.367-0.193-8.576-0.3-12.618c-1.862,0.317-26.926-4.835-24.931-7.868
			c4.848-7.366,19.86,3.865,24.871,5.74c-0.566-20.096-1.394-35.738-2.694-45.138c-3.604-1.914-3.797-3.128-0.583-3.634
			c-2.969-15.638-8.422-32.881-16.256-46.704c-2.115,0.575-4.204,0.489-6.272-0.258c-0.623-0.382,3.106-4.273,3.26-4.663
			c-6.196-9.43-14.6-18.075-26.291-23.987c0,0-53.508,9.524-112.671,13.785c-0.777,0.944-2.485,0.862-3.411,0.24
			c-15.544,1.064-31.409,1.742-46.739,1.781l4.591,13.266c2.115,0.407,4.234,0.815,6.354,1.219v0.004
			c-3.419-0.661-16.132,0.249-14.699-4.921c-2.677-0.618,0.468-6.967,0.837-9.572c-5.303-0.017-10.533-0.111-15.651-0.296
			l55.139,102.002c0.987,0.755,1.347,1.609,1.364,2.527l14.42,26.673c36.223-3.183,74.235-8.984,110.364-3.059
			c50.158,8.229,36.716,37.969,37.004,83.656c4.372,1.025,8.834,1.098,13.394,0.219c-0.313-32.589-0.571-62.694-1.086-87.707
			C657.938,552.362,657.938,552.144,658.14,551.925z M451.047,434.088c-0.51-0.081-0.961-0.296-1.364-0.652v-0.004
			C451.696,432.063,453.827,434.221,451.047,434.088z M456.367,443.977c-0.283,0.648-0.043,1.248,0.523,1.819
			C456.324,445.225,456.084,444.625,456.367,443.977z M648.246,498.811c3.055-0.613,5.62-0.21,6.968,1.527
			C656.381,505.581,638.713,500.716,648.246,498.811z M610.655,432.994c4.908-3.982,34.116,57.91,28.899,58.816
			C642.197,491.342,609.501,433.929,610.655,432.994z M603.636,447.576c0.678-0.051,11.228-1.918,10.49,0.631
			c-2.069,1.197-4.222,1.407-6.466,0.622c-0.18,0.292-0.441,0.562-0.794,0.807C604.717,449.876,595.939,448.138,603.636,447.576z
			 M592.443,417.385c2.128-1.377,3.432,1.828,0.622,2.677C592.34,419.75,589.997,418.977,592.443,417.385z M566.435,458.002
			l-0.566,0.884l-1.206-0.729L566.435,458.002z M558.824,422.697c4.758-2.986,4.247,2.205,2.728,5.084
			C560.6,429.57,551.35,427.39,558.824,422.697z M549.042,428.274c-2.12,2.51-4.089,2.591-5.904,0.236
			C545.326,426.301,547.296,426.219,549.042,428.274z M510.193,458.487c-0.386,0.287-0.691,0.746-1.184,0.815
			C509.502,459.233,509.807,458.774,510.193,458.487z M500.52,463.148c-0.006-0.001,0.013-0.004,0.072-0.011
			C500.565,463.14,500.545,463.145,500.52,463.148c0.098,0.019,9.884-0.757,8.747,0.929
			C505.931,469.001,494.984,463.818,500.52,463.148z M488.978,469.152c-1.918,1.034-3.158,0.601-3.725-1.3l0.06-0.043
			c0.232-0.909,0.27-1.866,0.463-2.789c-0.193,0.923-0.231,1.879-0.463,2.789C487.3,467.153,488.519,467.603,488.978,469.152z
			 M480.479,454.342c2.694-1.055,4.964-0.768,6.813,0.854c-0.215-0.202-6.8,0.399-8.121-0.026
			C479.603,454.883,479.998,454.368,480.479,454.342z M462.841,469.95c-2.252,3.226-6.92,1.154-1.841-0.781
			c-1.274-1.952-1.733-3.797,0.275-5.14c-2.008,1.343-1.549,3.188-0.275,5.14c0.699,0.082,1.403,0.159,2.102,0.227
			C463.017,469.581,462.961,469.77,462.841,469.95z M467.136,447.787l0.017-0.013c0.352,0.056,0.704,0.107,1.06,0.159
			C467.852,447.885,467.492,447.834,467.136,447.787z M479.487,474.468c2.128-1.381,3.428,1.823,0.622,2.677
			C479.389,476.832,477.038,476.06,479.487,474.468z M516.517,543.143c-0.009-2.257-4.256-3.509-4.625-5.68
			c-1.197-0.382-2.39-0.764-3.587-1.141c-3.067,0.305-5.946,0.335-7.469-1.536C504.625,534.94,526.381,540.354,516.517,543.143z
			 M551.659,498.476c-2.879-0.309-1.549-1.45,0.347-2.566c0.592,0.549,1.188,1.103,1.776,1.656
			C553.345,498.253,552.616,498.575,551.659,498.476z M478.677,482.229c-0.043,2.892,121.99-9.156,123.427-4.578
			C601.564,475.905,478.535,492.195,478.677,482.229z M612.882,484.889c-0.743,1.609-13.798-13.064-12.82-15.951
			C603.207,459.731,613.298,484.018,612.882,484.889z M621.127,483.894c0.159-0.236-17.161-20.722-10.614-23.918
			C610.672,459.898,622.805,481.478,621.127,483.894z M624.521,544.58c0.129,1.305,0.258,2.604,0.391,3.909
			C620.707,546.665,620.673,546.305,624.521,544.58z M651.657,547.047c-1.811,1.574-4.359,1.815-6.633,1.347
			C646.788,547.304,648.933,546.764,651.657,547.047z M636.199,550.024c-0.678,0.034-3.99-1.424-0.686-1.948
			c1.188-0.189,2.059,0.146,2.437,0.798c0.009,0.163-0.034,0.305-0.103,0.438c1.931-0.231,3.857-0.463,5.788-0.691
			c-0.004-0.013-0.009-0.026-0.013-0.034c0.026-0.03,0.06-0.051,0.099-0.064c0.009,0.026,0.03,0.056,0.03,0.056l0.013,0.026v0.004
			c-0.043-0.008-0.086-0.004-0.129,0.013c0.275,1.107,0.653,2.184,1.128,3.231C641.579,551.62,637.98,551.856,636.199,550.024z
			 M644.767,551.861c3.136,0.107,5.625,0.738,6.814,2.428C648.474,554.16,645.977,553.529,644.767,551.861z M652.773,609.951
			c-1.931-0.107-3.454-0.918-4.565-2.441c2.99-3.089,5.985-3.085,8.984,0.013C656.196,609.115,654.721,609.925,652.773,609.951z
			 M657.904,560.866c-2.973,0.468-8.611-2.574-2.016-1.819c0.725,0.086,1.39,0.322,2.086,0.489
			C657.947,559.978,657.925,560.424,657.904,560.866z"/>
		<path style="fill:#1A1A1A;" d="M607.407,868.154c-0.03,0.249-0.18,0.45-0.395,0.622c1.875-0.013,2.887-0.022,2.887-0.022
			s0.485-0.614,1.188-1.686c-1.283,0.129-2.574,0.215-3.865,0.258C607.386,867.575,607.446,867.854,607.407,868.154z"/>
		<path style="fill:#1A1A1A;" d="M471.29,531.365l0.003,0.006C471.359,531.343,471.354,531.342,471.29,531.365z"/>
		<path style="fill:#1A1A1A;" d="M442.589,859.11c-0.127-0.126-0.257-0.252-0.35-0.386
			C442.332,858.857,442.45,858.986,442.589,859.11z"/>
		<path style="fill:#1A1A1A;" d="M653.278,826.42c-0.432,1.152-0.9,2.265-1.396,3.345
			C652.983,828.574,653.382,827.436,653.278,826.42z"/>
		<path style="fill:#1A1A1A;" d="M553.119,869.216c-16.592,0.137-33.183,0.271-49.774,0.405
			C519.83,870.026,536.525,869.736,553.119,869.216z"/>
		<path style="fill:#1A1A1A;" d="M603.087,867.438c-16.329,0.491-33.096,1.25-49.967,1.778c16.941-0.14,33.88-0.272,50.821-0.414
			C603.173,868.399,602.889,867.944,603.087,867.438z"/>
		<path style="fill:#1A1A1A;" d="M492.348,862.242c-5.22-0.052-8.919-0.113-10.406-0.185c-0.781-0.039-2.914-0.087-5.958-0.135
			c-7.855,0.189-14.965,0.168-20.634-0.174c-1.624-0.004-3.268-0.006-4.918-0.005C459.488,863.097,474.871,862.995,492.348,862.242z
			"/>
		<path style="fill:#1A1A1A;" d="M565.062,864.161c1.798-0.031,3.598-0.053,5.395-0.088
			C568.91,863.578,567.11,863.611,565.062,864.161z"/>
		<path style="fill:#1A1A1A;" d="M578.252,856.781c8.884,0.008,17.79,0.13,17.756,0.587
			C596.088,856.231,589.181,856.223,578.252,856.781z"/>
		<path style="fill:#1A1A1A;" d="M312.882,493.217c-0.065-0.004-0.12-0.04-0.174-0.082
			C312.758,493.18,312.814,493.212,312.882,493.217z"/>
		<path style="fill:#1A1A1A;" d="M645.865,643.424c0.082,12.635,0.206,25.266,0.313,37.896c0.219-0.09,0.459-0.172,0.669-0.266
			c1.068,0.82,0.884,1.3-0.544,1.45c-0.048-0.009-0.074-0.021-0.117-0.034l0.236,32.332c0.884,0.468,1.854,1.381,0.013,1.862
			l0.665,91.04c0,0-0.099,0.236-0.274,0.648c0.922,0.751,0.613,1.438-0.923,2.064c-20.859,45.396-132.085,31.92-175.469,32.962
			c-58.258,1.399-161.208,21.76-165.781-58.567c-2.754-48.429,0-97.784,0-146.295c0-12.609-3.544-29.577,2.96-40.955
			c16.02-28.024,81.683-20.967,108.48-22.159c-1.772-1.317-3.552-2.639-5.556-4.127c6.35-1.081,9.417,0.24,9.207,3.964
			c4.389-0.184,7.006-0.283,7.006-0.283l3.145-2.565c-0.695-0.502-1.386-1-2.081-1.502c1.772-1.39,3.647-1.853,5.625-1.39
			l20.576-16.784c-0.202-0.3-0.365-0.575-0.485-0.755c0.819-1.008,1.733-1.369,2.737-1.081l6.731-5.491l19.319,6.629l-8.109-15.188
			c-3.003,1.973-7.855,4.132-11.429,2.819c-6.581-2.428,7.56-7.949,8.509-8.281l-43.38-81.248c-2.304-0.266-3.969-0.91-4.358-2.287
			c0.901-0.279,1.784-0.575,2.672-0.862l-8.915-16.698c-16.874-4.419-34.983-1.939-52.239-4.226
			c-0.034,0.193-0.064,0.386-0.094,0.583l-0.262-0.412c0,0,0.163-0.094,0.318-0.18c-12.284-1.63-24.592-4.479-32.714-9.421
			c-58.46,24.219-47.108,112.153-46.155,163.005c0.691,36.708,1.215,73.424,1.712,110.141c1.429-0.15,2.72-0.489,3.797-1.124
			c2.278-0.245,4.376,0.257,6.298,1.501c-2.368,2.321-5.311,3.072-8.833,2.253c-0.412-0.309-0.824-0.618-1.236-0.927l0.266,19.658
			c1.746,0.575,2.716,1.3,2.639,2.124c0.077-0.82-0.892-1.549-2.639-2.124c0.232,17.097,0.468,34.194,0.699,51.29
			c0.412-0.939,0.824-1.875,1.231-2.814c-0.412,0.944-0.82,1.888-1.231,2.832l0.017,1.201c1.3,0.832,2.595,1.665,3.891,2.497h-0.004
			c-0.15,0.36-0.33,0.716-0.544,1.064c-1.099,0.369-2.193,0.738-3.278,1.107l0.12,8.825c2.652,1.21,4.441,3.278,5.359,6.204
			c-2.029-0.155-3.647-0.807-5.294-1.442l0.236,17.247c0.167,0.215,0.167,0.433,0.009,0.652c2.686,23.292,12.978,49.24,40.08,49.892
			c11.901,35.099,90.95,20.611,118.61,20.396c18.426-0.143,36.854-0.301,55.28-0.45c-11.458-0.281-22.815-0.895-33.962-2.012
			c0.202,0.231,0.283,0.57,0.46,0.828c-2.102,2.583-6.341-0.442-3.188-1.159c-5.213-0.755,25.531-1.583,32.649-1.544
			c22.116,0.107,44.606,1.836,66.685,0.309c-0.528-0.571-1.06-1.137-1.587-1.708c0.226-0.071,0.44-0.115,0.66-0.175
			c-28.726,0.494-57.595,0.487-86.115-0.216c-1.506,1.45-3.175,1.455-5.002,0.009c-4.75,0.051-58.009,1.085-57.889-0.888
			c0.069-1.025,17.444-1.313,34.377-1.322c-3.912-0.584-6.64-1.441-7.843-2.634c-0.139-0.124-0.257-0.253-0.35-0.386
			c0.092,0.134,0.223,0.259,0.35,0.386c1.6,1.424,6.221,2.245,12.761,2.639c8.049,0.02,15.593,0.095,20.634,0.174
			c1.973-0.048,3.993-0.109,6.048-0.181c0.01-0.066,0.019-0.132,0.012-0.199c0.006,0.067-0.003,0.133-0.012,0.199
			c31.107-1.09,70.305-4.785,78.602-4.863c0.255-0.004,8.926-0.106,17.618-0.098c10.929-0.558,17.836-0.55,17.756,0.587
			c0.035-0.458-8.871-0.58-17.756-0.587c-20.855,1.065-56.351,4.188-85.904,5.461c30.866,0.308,115.296,0.301,115.303,0.231
			c-2.287,0.275-4.573,0.554-6.86,0.828c-10.075,0.315-20.194,0.574-30.335,0.771c1.161,0.372,2.188,1.023,3.066,1.983
			c12.618,0.691,25.656-1.819,38.222-0.021c1.244-2.042,2.84-5.101,3.878-8.726c0,0,20.439-6.427,31.16-19.276
			c-0.193-0.583,0.086-0.94,0.841-1.068c1.643-2.132,3.043-4.559,4.257-7.199c-0.815,0.881-2.009,1.791-3.678,2.702
			c-3.128,2.051-5.882,2.008-8.263-0.12c-3.019-13.414,12.763-11.525,13.337-5.927c8.434-22.491,4.974-57.923,5.583-77.639
			c-2.377-1.66-3.934-3.578-4.663-5.689c1.081-1.939,2.707-2.656,4.882-2.154c0.811-31.795,0.519-63.595,0.206-95.395
			C652.386,646.243,650.984,648.65,645.865,643.424z M373.921,552.324c0.21-1.227,1.15-1.725,2.814-1.493
			C375.795,551.329,374.856,551.826,373.921,552.324z M375.929,547.137c-3.416-0.022-6.445-0.455-7.5-3.012
			c3.969-0.09,7.629,0.897,10.979,2.965C378.246,547.107,377.065,547.146,375.929,547.137z M400.233,564.474
			c-0.871-0.386-0.717-0.755,0.455-1.107c0.369,0.244,0.734,0.489,1.098,0.738C401.537,564.551,400.997,564.697,400.233,564.474z
			 M425.936,553.229c1.48-3.621,9.01-4.303,10.232-0.15C435.276,560.222,425.627,553.984,425.936,553.229z M409.873,458.885
			c5.084-5.732,4.23,0.755,8.066,1.656C421.478,461.374,403.519,466.037,409.873,458.885z M391.125,435.598
			c0.948-0.189,2.017-0.206,3.033-0.296c0,0,0.005-0.026,0.009-0.039l0.047,0.034l-0.056,0.004
			C393.081,439.914,388.4,436.138,391.125,435.598z M390.688,482.053c2.634-0.013,5.298-0.017,7.945,0.047
			c-0.433-0.605-4.183-4.011-1.763-4.479c2.013-0.472,28.977,6.74,29.028,5.565c-0.124,2.75-14.995,0.952-17.247,0.48
			c0.579,0.678,7.431,8.199,6.23,9.083c-4.303,3.162-20.585-3.17-25.025-3.072c0.794,5.376-0.837,14.064-9.117,9.769
			c-1.918-4.758,0.052-7.924,5.908-9.503C386.217,486.116,387.564,483.49,390.688,482.053z M387.182,485.267
			c-4.423,5.363-6.337-10.769-1.107-7.873c0.506,0.258-0.219,4.175-0.116,4.677c-0.086,0.386,0.034,0.639,0.382,0.836
			C386.178,483.508,387.036,485.412,387.182,485.267z M380.515,430.625c0.481-1.347,5.479-1.51,6.298-0.493
			C387.958,431.543,379.76,432.715,380.515,430.625z M373.775,455.26c1.039-0.528,2.076-1.056,3.115-1.583
			c3.634,0.476,4.981,1.725,4.29,3.668c-2.6,0.442-5.191,0.626-7.748-0.086C373.547,456.59,373.663,455.925,373.775,455.26z
			 M372.457,471.259c2.643-6.32,4.535,3.999,4.265,5.461c0.039,1.227,2.625,4.059,0.279,4.603c-0.507,0.155-1,0.125-1.476-0.086
			C374.912,480.659,372.041,472.241,372.457,471.259z M366.001,466.896c0.227-2.128,0.244-7.521,4.337-6.38
			c-0.742-0.206-0.858,25.098-0.652,25.064C366.777,486.077,365.962,469.255,366.001,466.896z M330.284,467.191
			c-2.059-0.528-2.746,51.518-1.223,51.295c-1.793,0.262-2.402-3.668-2.536-4.981C326.182,508.743,321.433,464.952,330.284,467.191z
			 M327.242,578.006c-1.991-2.566,1.36-3.501,4.681-4.449C332.463,575.68,331.755,577.426,327.242,578.006z M355.223,441.124
			c-0.073-0.399-0.112-0.798-0.112-1.201C357.544,439.734,358.463,439.957,355.223,441.124z M353.095,437.588
			c-2.081,0.017-4.162,0.034-6.242,0.051c-0.777,0.764-1.553,1.532-2.325,2.3c-2.814,0.618-4.179-0.545-4.106-3.488
			C344.785,434.718,349.007,435.096,353.095,437.588z M327.294,529.44c7.903,0.828,10.927-5.5,12.227,2.355
			C335.505,532.61,328.169,535.326,327.294,529.44z M338.277,496.893c-0.515,1.004,1.918,4.17,0.399,4.732
			c-1.806,0.682-7.98-11.755-1.287-11.721C338.444,489.904,338.324,496.087,338.277,496.893z M335.969,430.548
			c-1.567-2.861-25.958,60.08-23.26,62.586c0.053,0.043,0.109,0.078,0.174,0.082c-0.068-0.004-0.124-0.036-0.174-0.082
			c-1.997-1.593,3.709-29.224,3.701-29.199C317.465,459.409,332.884,424.859,335.969,430.548z M309.969,443.093
			c-0.506,0.369-1.008,0.734-1.515,1.103c-0.309-0.455-0.622-0.909-0.939-1.364C308.335,442.921,309.154,443.007,309.969,443.093z
			 M301.664,484.494c0.338-3.226,4.599-42.233,12.815-37.278c-4.132-2.497-14.278,56.503-10.065,55.954
			C301.14,503.607,301.517,485.927,301.664,484.494z M298.497,472.224c3.617,0.249-2.621,0.476,0.287,0.064L298.497,472.224z
			 M294.644,557.116c-2.098,0.716-4.046,0.467-5.843-0.738c-2.647-5.414,20.911-0.459,23.103,1.566
			c9.25-0.219,0.485,7.5-6.135,1.828C302.088,558.776,298.381,557.893,294.644,557.116z M291.113,770.872v-0.004
			c1.703,0.493,3.406,0.983,5.11,1.472C294.52,771.85,292.817,771.361,291.113,770.872z M297.446,779.89
			c0.266,0.167,0.789,0.317,1.133,0.476C298.235,780.207,297.712,780.057,297.446,779.89z M300.793,683.71
			c0.274-1.845,1.077-3.102,2.411-3.767C303.204,681.432,302.401,682.689,300.793,683.71z M452.433,867.918
			c-3.557,6.86-103.07-4.153-103.315-0.798C349.698,859.162,449.301,873.985,452.433,867.918z M352.521,861.981
			c-0.064-1.648,55.203-0.288,55.293,1.012C407.78,862.529,352.628,864.855,352.521,861.981z M344.313,858.617
			c-2.686-0.094-5.264-0.652-7.735-1.673c0.425-2.78,94.026,2.66,94.03,1.463C430.604,859.895,351.323,859.162,344.313,858.617z
			 M347.561,852.297c49.137-2.463,98.625,1.3,147.788,1.12c-0.699-1.094-0.219-1.57,1.441-1.429
			c0.197,0.429,0.545,0.918,0.652,1.424c9.023-0.021,54.985-0.309,54.912,0.588C551.886,860.024,358.3,851.86,347.561,852.297z
			 M561.093,853.288c4.44-0.536,43.186,0.18,43.16,0.794C604.091,857.815,558.472,853.593,561.093,853.288z M622.08,847.17
			l-0.373-0.421l0.901,0.03L622.08,847.17z"/>
		<path style="fill:#1A1A1A;" d="M762.566,629.322c0.408,3.064,0.858,6.307,1.335,9.666c0.66-0.18,1.291-0.099,1.891,0.232
			c-0.386-4.398-0.583-8.804-0.901-13.206C764.29,627.22,763.514,628.322,762.566,629.322z"/>
		<path style="fill:#1A1A1A;" d="M729.372,458.564c-0.308,0.116-0.648,0.189-1.021,0.219c-0.034,0.292-0.125,0.613-0.339,0.867
			c0.365,0.017,0.725,0.052,1.085,0.107c0.884,0.133,1.763,0.296,2.634,0.485C731.259,459.564,730.436,459.014,729.372,458.564z"/>
		<path style="fill:#1A1A1A;" d="M770.833,701.326c0,0,0-0.017,0-0.022c0,0.009-0.004,0.013-0.004,0.013L770.833,701.326z"/>
		<path style="fill:#1A1A1A;" d="M765.981,641.408c-0.596,0.086-1.188,0.009-1.772-0.232c2.321,16.376,5.08,34.927,6.272,47.219
			c0.09-0.004,0.185-0.004,0.279-0.009c-0.038-1.892-0.146-3.78-0.322-5.667C769.4,668.904,767.182,655.201,765.981,641.408z"/>
		<path style="fill:#1A1A1A;" d="M779.109,636.688c0.132,1.591,3.686,46.847,5.537,67.842c0.194-1.631,0.359-3.281,0.497-4.949
			c-1.045-18.869-3.113-50.722-4.367-70.805c-1.324-9.751-2.712-19.41-3.893-28.746
			C777.435,612.263,778.104,624.487,779.109,636.688z"/>
		<path style="fill:#1A1A1A;" d="M770.396,507.465c1.163,0.111,0.822-4.754-0.034-9.962c-0.127,3.021-0.233,6.057-0.324,9.105
			C770.184,507.139,770.307,507.456,770.396,507.465z"/>
		<path style="fill:#1A1A1A;" d="M776.883,600.03c-0.779-17.268-1.315-34.554-2.172-51.816
			C772.888,562.707,774.435,580.673,776.883,600.03z"/>
		<path style="fill:#1A1A1A;" d="M797.768,618.326c0.06-38.582,8.714-113.491-14.303-147.251c-3.102,1.986-5.9,1.875-8.384-0.335
			c1.536-2.201,3.604-3.175,6.208-2.917c-5.818-8.804-11.528-17.706-24.347-24.133c-0.107,0.03-10.631,1.047-7.628-1.806
			c0.205-0.618,0.334-0.965,0.613-1.18c-15.406-5.543-34.215-7.705-50.617-6.603c0.197,0.107,0.399,0.214,0.596,0.322
			c-0.026,0.849-0.056,1.695-0.086,2.54c-3.441-0.163-6.504-0.85-9.49-1.647c-9.246,1.961-16.775,5.869-28.624,11.137
			c0,0,9.661,25.467,8.782,34.25c0,0,7.705-5.123,18.886-8.293c-1.42,0.168-10.803,2.064-11.091,0.832
			c-0.888-4.024,44.396-4.732,44.074-3.471c-0.214,0.811-9.872,0.15-11.172,0.446c9.932,0.995,19.521,5.453,27.076,11.923
			c1.463-0.747,6.281,2.257,3.394,3.153c17.689,17.865,20.731,40.878,20.066,64.556c1.369,0.489,1.317,1.124-0.051,1.776
			c-0.686,23.378-2.849,47.412,0,70.726c1.459,0.257,2.518,0.772,3.067,1.455c-0.215-1.738-0.18-3.467,0.112-5.187
			c2.488-0.06,7.885,63.822,7.92,69.829c0.858,0.137,1.72,0.24,2.591,0.3c-0.446-5.998-7.229-37.69-3.093-41.676
			c-1.326,1.27,4.972,37.317,5.289,41.654c0.875-0.03,1.759-0.073,2.613-0.069c-0.823,1.107-1.648,2.218-2.467,3.325
			c0.532,18.599-1.566,39.007-14.417,52.797c5.24-4.789,9.532-8.939,9.787-9.418c5.608-10.503,6.671-24.21,7.161-35.811
			c1.188-27.921-4.677-56.036-6.976-83.789c-1.433-17.333-2.491-35.329-3.074-53.456c-1.729,30.491-3.002,72.332,0.976,71.904
			c-6.879,0.745-4.78-63.727-1.406-91.063c-0.154-12.257-0.075-24.49,0.284-36.538c-1.15-4.182-3.78-22.406-2.851-21.199
			c0.898,1.13,2.304,6.79,3.175,12.094c0.231-5.498,0.521-10.948,0.875-16.333c-0.116,1.613,5.066,29.135,5.706,40.295
			c1.711,29.942,1.643,59.935,2.814,89.877c0.088,2.28,0.478,8.762,1.019,17.435c3.289,24.236,6.159,49.028,4.367,70.805
			c0.519,9.369,0.786,15.541,0.573,15.465c-0.107-0.038-0.51-4.171-1.07-10.516c-0.429,3.606-1.003,7.116-1.739,10.515
			c3.85-0.667,6.756,3.449,11.403-0.797c2.716-2.48-7.418-3.303,1.42-6.487c0.717,1.63,1.459,3.248,2.231,4.853
			c0.091-31.036-0.258-62.081-0.193-93.125C797.008,619.343,797.008,618.952,797.768,618.326z M729.157,445.839
			c0.498-0.107,0.987-0.047,1.471,0.193c-0.785,0.747-0.644,0.532-1.699,0.283C728.823,446.105,728.896,445.946,729.157,445.839z
			 M731.174,449.507c6.397,0.922,14.338,1.373,20.1,4.479c0.36,0.193,20.709,15.956,14.515,17.153
			c-1.069,0.206-6.753-8.654-8.311-10.155c0.047,0.197,0.047,0.395,0.004,0.596c-0.91,0.163-1.823,0.335-2.733,0.498
			c0.094-1.236,0.768-1.836,2.008-1.798c-9.031-9.048-28.423-2.69-35.201-9.318c-5.663-0.258-39.411,0.764-41.985,2.038
			C693.899,445.68,716.162,447.34,731.174,449.507z M702.029,466.462c-0.832,0.206-23.395,2.158-23.579,1.437
			C677.463,464.064,705.376,465.673,702.029,466.462z M704.664,461.571c-3.565,0.343-34.013,5.612-34.567,3.484
			c-0.592-2.24,42.633-6.508,42.723-4.702C712.893,461.773,705.243,461.55,704.664,461.571z M761.858,508.353
			c-0.365-0.056-1.72-11.738-2.094-13.051c-0.644,0.137-1.394,0.176-2.128,0.185c-0.181-0.138-0.365-0.279-0.55-0.416
			c0.073,0.563,1.056,5.177,1.469,9.115c1.645,3.859,1.685,6.237-0.929,5.721c1.223,0.245,1.264-2.515,0.929-5.721
			c-0.904-2.122-2.293-4.69-3.998-7.477c-0.35,0.41-0.892,0.756-1.83,0.967c-0.478-1.395-0.109-2.111,1.089-2.161
			c-5.012-7.962-12.287-17.354-18.051-23.077c-14.078-6.229-29.292-9.458-29.181-7.008c-0.199-4.514,9.878-2.949,21.381,1.583
			c1.244-0.318,3.28,0.681,5.703,2.442c12.391,5.721,24.765,14.184,26.703,21.73c2.557,0.27,3.012,0.987,0.85,3.346
			C761.472,495.323,764.406,508.743,761.858,508.353z M765.333,556.764c-0.489,6.083-1.549,52.749-1.24,52.702
			c-2.583,0.416-2.72-61.956,0.884-61.703C765.874,550.689,765.994,553.688,765.333,556.764z M767.178,503.269
			c0.865,0-2.667-7.904-6.585-15.655c-4.518-6.852-10.417-14.519-15.669-19.829c-6.828-3.795-13.766-4.657-22.296-6.682
			c-1.764,0.519-3.57,0.845-5.411,0.991c-0.236-0.545-0.485-1.09,0.768-1.399c0.056-0.052,0.124-0.099,0.189-0.146
			c-0.308-0.386,1.772-1.15,1.596-1.094c1.236-1.163,0.734-1.407,2.763-1.695c1.291-1.021,1.433-1.021,2.712,0
			c0.918-0.017,1.836-0.034,2.754-0.047c0.026-0.343,0.047-0.687,0.073-1.025c-12.12-2.574-45.889-0.455-54.238,2.39
			c14.84-5.457,39.359-7.392,54.654-3.72c0.953-1.09,5.706-0.699,5.534,1.343c3.141,0.867,37.845,21.456,30.56,24.97
			c4.007-1.952-27.308-22.782-31.267-23.833c0.841,0.983,1.677,1.965,2.514,2.948c1.695,0.021,2.107,0.592,0.386,0.549
			c2.29,0.648,5.369,3.072,8.709,6.45c2.403,1.336,4.793,3.027,7.233,5.271c1.367,1.258,5.045,7.851,8.435,14.558
			C766.167,496.067,769.636,503.276,767.178,503.269z M761.493,485.824c-0.27,0.335-0.541,0.67-0.807,1.008
			C760.382,486.361,760.687,486.034,761.493,485.824z M786.076,609.604h-0.004c-1.3-0.481-1.424-0.845-0.369-1.09
			c0.554,0.086,1.056,0.266,1.579,0.407C786.883,609.149,786.48,609.376,786.076,609.604z M793.859,682.693
			c-0.956-0.412-0.716-0.639,0.717-0.674C794.837,682.556,794.597,682.779,793.859,682.693z"/>
		<path style="fill:#1A1A1A;" d="M735.228,747.284c-2.675,0.901-5.432,1.659-8.241,2.309c4.784-0.619,8.344-1.145,9.653-1.468
			C736.15,747.863,735.683,747.575,735.228,747.284z"/>
		<path style="fill:#1A1A1A;" d="M769.753,543.146c0.081,6.389,0.225,12.781,0.43,19.159c0.994-17.519,2.138-31.295,2.525-31.144
			C771.735,530.778,770.695,535.516,769.753,543.146z"/>
		<path style="fill:#1A1A1A;" d="M700.784,752.608c8.914-0.185,17.812-1.073,26.203-3.016
			C719.857,750.515,710.002,751.642,700.784,752.608z"/>
		<path style="fill:#1A1A1A;" d="M770.799,703.025c-0.034-0.008-0.073-0.017-0.107-0.021c-1.742,18.985-9.336,37.274-27.741,44.426
			c0.338,0.547,0.593,1.123,0.766,1.726c3.286-0.803,5.592-1.507,6.429-2.034C766.097,737.064,770.408,721.812,770.799,703.025z"/>
		<path style="fill:#1A1A1A;" d="M743.716,749.155c-0.76,0.186-1.576,0.377-2.434,0.572c0.803,0.144,1.662,0.246,2.621,0.272
			C743.862,749.711,743.795,749.431,743.716,749.155z"/>
		<path style="fill:#1A1A1A;" d="M744.924,467.785c5.251,5.31,11.151,12.977,15.669,19.829c-3.39-6.707-7.068-13.3-8.435-14.558
			C749.717,470.813,747.327,469.121,744.924,467.785z"/>
		<path style="fill:#1A1A1A;" d="M763.285,744.779c-1.686,1.54-3.466,3.144-5.246,4.717c0.215-0.126,0.4-0.245,0.537-0.354
			C760.289,747.779,761.851,746.318,763.285,744.779z"/>
		<path style="fill:#1A1A1A;" d="M757.628,509.906c2.614,0.516,2.573-1.862,0.929-5.721
			C758.892,507.391,758.85,510.15,757.628,509.906z"/>
		<path style="fill:#1A1A1A;" d="M755.821,491.663c0.189-0.163,0.412-0.326,0.704-0.493c0.755-0.03,1.519-0.06,2.274-0.06
			c-1.677-6.464-10.107-12.479-19.721-17.139C746.961,481.212,755.705,491.477,755.821,491.663z"/>
		<path style="fill:#1A1A1A;" d="M733.67,469.453c-1.041-0.481-2.082-0.944-3.117-1.384c1.462,0.894,3.249,2.417,5.214,4.367
			c1.114,0.493,2.22,1.005,3.312,1.534C737.181,472.228,735.335,470.663,733.67,469.453z"/>
		<path style="fill:#1A1A1A;" d="M730.553,468.069c-0.815-0.499-1.527-0.798-2.113-0.87
			C729.14,467.479,729.845,467.769,730.553,468.069z"/>
		<path style="fill:#1A1A1A;" d="M753.817,495.513c0.253,0.402,0.5,0.8,0.741,1.194c0.276-0.324,0.436-0.686,0.559-1.063
			C754.606,495.538,754.178,495.498,753.817,495.513z"/>
		<path style="fill:#1A1A1A;" d="M743.436,760.215c0.062,0.274,0.39,0.266,0.922,0.039
			C743.83,760.353,743.469,760.362,743.436,760.215z"/>
		<path style="fill:#1A1A1A;" d="M740.885,762.795c-3.935,0.907-8.373,1.866-13.022,2.806
			C732.325,765.285,736.705,764.332,740.885,762.795z"/>
		<path style="fill:#1A1A1A;" d="M782.674,716.091c0.079-0.348,0.158-0.696,0.233-1.046c-0.561,0.097-1.142,0.295-1.751,0.636
			C781.195,715.66,781.767,715.817,782.674,716.091z"/>
		<path style="fill:#1A1A1A;" d="M781.563,729.166c8.576,0.884-21.284,26.96-22.219,27.488c-0.245,1-0.176,2.004,0.201,3.012
			l-0.159-0.043c-0.12,1.115-0.236,2.231-0.352,3.346c-0.331,0.008-0.656,0-0.983-0.013c-1.806-1.321-2.021-2.84-2.072-4.402
			c-1.509,0.853-7.314,2.447-15.096,4.241c-4.18,1.537-8.56,2.49-13.022,2.806c-21.49,4.346-47.422,8.299-48.309,4.97
			c-0.374-1.394,4.474-2.815,5.255-3.063c3.235,2.128,49.725-8.637,50.909-5.127c0.532,1.523-11.545,2.973-13.364,3.291
			c1.844,0.085,3.683,0.059,5.509-0.07c4.65-0.941,9.087-1.899,13.022-2.806c2.942-1.081,5.786-2.448,8.484-4.095
			c-0.436,0.183-3.454,1.262-5.01,1.554c-0.532,0.227-0.86,0.234-0.922-0.039c0.034,0.148,0.395,0.138,0.922,0.039
			c2.186-0.931,7.909-5.66,13.681-10.758c-7.742,4.529-64.611,19.517-64.281,14.229c-0.077,1.506,55.997-9.859,61.262-13.523
			c17.723-12.334,21.031-33.902,20.644-54.375c-0.978,0.086-1.956,0.168-2.935,0.253c0.017,1.703,0.004,3.428-0.043,5.174
			c3.342,0.06,2.943,1.48-0.052,1.776c-0.785,21.198-7.383,38.244-26.776,47.575c-4.518,2.175-65.607,13.219-65.071,8.117
			c-0.162,1.763,41.52-4.677,60.494-8.994c-1.034-0.185-1.968-0.447-2.815-0.775c-4.255,1.206-63.865,10.164-63.483,5.697
			c-0.04,0.461,12.181-0.614,25.8-2.042c-9.716,0.202-19.444-0.419-28.538-1.408c0.416,14.038,1.853,28.179,1.755,42.156
			c50.282-0.352,122.12-8.186,123.844-72.129c-1.57-0.766-11.359-3.987-15.171-5.137c-2.719,11.925-7.499,22.439-15.268,30.763
			C769.404,745.027,781.602,729.17,781.563,729.166z M790.26,747.884c-1.257,1.27-2.591,1.068-4.007-0.596
			c0.021-0.459,0.038-0.914,0.06-1.373C788.033,745.683,789.35,746.34,790.26,747.884z M786.514,736.781
			c0.772,0.069,1.544,0.142,2.317,0.21c-0.026,0.811-0.047,1.622-0.073,2.433c-0.849-0.06-1.695-0.125-2.544-0.189
			C786.313,738.42,786.416,737.6,786.514,736.781z"/>
		<path style="fill:#1A1A1A;" d="M726.725,468.646c0.2-1.125,0.807-1.558,1.715-1.447c-0.158-0.063-0.315-0.126-0.473-0.188
			C727.321,467.177,726.886,467.691,726.725,468.646z"/>
		<path style="fill:#1A1A1A;" d="M740.835,745.057c0.472,0.395,0.897,0.807,1.274,1.24c9.945-3.857,17.115-10.571,20.774-20.757
			C757.637,733.417,749.48,741.093,740.835,745.057z"/>
	</g>
</g>
</svg>
