<svg width="872" height="75" viewBox="0 0 872 75" fill="none" xmlns="http://www.w3.org/2000/svg">
<path d="M222.227 49V16.36H233.123C236.707 16.36 239.843 17.096 242.531 18.568C245.219 20.04 246.563 22.44 246.563 25.768V26.008C246.531 27.16 246.275 28.216 245.795 29.176C245.347 30.104 244.755 30.936 244.019 31.672C245.299 32.568 246.339 33.672 247.139 34.984C247.971 36.264 248.387 37.688 248.387 39.256C248.387 43 246.963 45.56 244.115 46.936C241.267 48.312 238.083 49 234.563 49H222.227ZM232.835 23.224H230.963V28.744H232.931C234.275 28.744 235.379 28.536 236.243 28.12C237.107 27.704 237.539 27.064 237.539 26.2C237.539 25.208 237.123 24.472 236.291 23.992C235.459 23.48 234.307 23.224 232.835 23.224ZM234.659 35.608H230.963V42.136H234.755C236.099 42.136 237.203 41.88 238.067 41.368C238.931 40.856 239.363 40.088 239.363 39.064C239.363 37.976 238.947 37.128 238.115 36.52C237.283 35.912 236.131 35.608 234.659 35.608ZM270.205 47.032C269.213 47.576 267.933 48.184 266.365 48.856C264.829 49.528 263.085 49.864 261.133 49.864C257.837 49.864 255.517 48.952 254.173 47.128C252.861 45.272 252.205 42.952 252.205 40.168V25.768H260.941V39.976C260.941 40.872 261.165 41.56 261.613 42.04C262.093 42.52 262.733 42.76 263.533 42.76C264.045 42.76 264.685 42.616 265.453 42.328C266.221 42.04 266.957 41.736 267.661 41.416V25.768H276.397V49H272.029L270.205 47.032ZM282.169 49V25.768H286.537L288.649 28.12C289.609 27.48 290.745 26.92 292.057 26.44C293.369 25.96 294.681 25.72 295.993 25.72L297.769 32.728C296.617 32.728 295.433 32.888 294.217 33.208C293.001 33.528 291.897 34.072 290.905 34.84V49H282.169ZM315.939 41.752V33.496C315.491 33.08 314.915 32.728 314.211 32.44C313.539 32.152 312.915 32.008 312.339 32.008C311.027 32.008 310.083 32.6 309.507 33.784C308.963 34.936 308.691 36.088 308.691 37.24C308.691 38.616 309.059 39.832 309.795 40.888C310.563 41.912 311.651 42.424 313.059 42.424C313.411 42.424 313.875 42.36 314.451 42.232C315.027 42.104 315.523 41.944 315.939 41.752ZM324.675 25.768V49.24C324.675 52.6 323.555 55.144 321.315 56.872C319.107 58.632 315.955 59.512 311.859 59.512C310.867 59.512 309.379 59.304 307.395 58.888C305.411 58.504 303.667 57.816 302.163 56.824L304.803 50.68C306.371 51.448 307.667 51.928 308.691 52.12C309.747 52.344 310.755 52.456 311.715 52.456C312.707 52.456 313.651 52.264 314.547 51.88C315.475 51.496 315.939 50.936 315.939 50.2V48.52C315.267 48.808 314.515 49.048 313.683 49.24C312.851 49.432 311.907 49.528 310.851 49.528C307.107 49.528 304.307 48.376 302.451 46.072C300.595 43.768 299.667 40.888 299.667 37.432C299.667 33.944 300.579 30.984 302.403 28.552C304.259 26.12 307.235 24.904 311.331 24.904C312.643 24.904 313.955 25.192 315.267 25.768C316.611 26.312 317.795 26.952 318.819 27.688L320.307 25.768H324.675ZM329.01 37.384C329.01 33.48 330.21 30.424 332.61 28.216C335.042 26.008 338.018 24.904 341.538 24.904C345.25 24.904 348.034 26.104 349.89 28.504C351.746 30.904 352.674 33.736 352.674 37V40.024H338.514C338.898 40.92 339.474 41.56 340.242 41.944C341.042 42.328 341.986 42.52 343.074 42.52C344.098 42.52 345.138 42.424 346.194 42.232C347.282 42.04 348.274 41.72 349.17 41.272L351.618 47.176C350.274 48.168 348.61 48.808 346.626 49.096C344.642 49.384 343.17 49.528 342.21 49.528C338.434 49.528 335.282 48.568 332.754 46.648C330.258 44.696 329.01 41.608 329.01 37.384ZM344.322 34.744C344.29 34.232 344.05 33.64 343.602 32.968C343.154 32.264 342.386 31.912 341.298 31.912C340.498 31.912 339.842 32.168 339.33 32.68C338.85 33.16 338.498 33.848 338.274 34.744H344.322ZM356.982 49V25.768H361.35L363.462 28.12C364.422 27.48 365.558 26.92 366.87 26.44C368.182 25.96 369.494 25.72 370.806 25.72L372.582 32.728C371.43 32.728 370.246 32.888 369.03 33.208C367.814 33.528 366.71 34.072 365.718 34.84V49H356.982Z" fill="#E76C1F"/>
<path d="M397.039 49V36.232H385.135V49H376.399V16.36L385.135 16.072V29.368H397.039V16.36H405.775V49H397.039ZM410.573 37.24C410.573 33.336 411.853 30.312 414.413 28.168C417.005 25.992 420.125 24.904 423.773 24.904C427.613 24.904 430.765 25.96 433.229 28.072C435.725 30.184 436.973 33.32 436.973 37.48C436.973 41.384 435.677 44.376 433.085 46.456C430.493 48.504 427.325 49.528 423.581 49.528C419.837 49.528 416.733 48.52 414.269 46.504C411.805 44.488 410.573 41.4 410.573 37.24ZM419.597 37.24C419.597 38.808 419.949 40.072 420.653 41.032C421.357 41.96 422.365 42.424 423.677 42.424C425.053 42.424 426.109 42.008 426.845 41.176C427.581 40.344 427.949 39.112 427.949 37.48C427.949 35.912 427.597 34.616 426.893 33.592C426.189 32.536 425.181 32.008 423.869 32.008C422.493 32.008 421.437 32.472 420.701 33.4C419.965 34.328 419.597 35.608 419.597 37.24ZM458.83 47.032C457.838 47.576 456.558 48.184 454.99 48.856C453.454 49.528 451.71 49.864 449.758 49.864C446.462 49.864 444.142 48.952 442.798 47.128C441.486 45.272 440.83 42.952 440.83 40.168V25.768H449.566V39.976C449.566 40.872 449.79 41.56 450.238 42.04C450.718 42.52 451.358 42.76 452.158 42.76C452.67 42.76 453.31 42.616 454.078 42.328C454.846 42.04 455.582 41.736 456.286 41.416V25.768H465.022V49H460.654L458.83 47.032ZM479.146 32.824C479.146 33.048 479.258 33.24 479.482 33.4C479.738 33.528 480.282 33.736 481.114 34.024C483.034 34.696 484.874 35.624 486.634 36.808C488.394 37.96 489.274 39.608 489.274 41.752C489.274 44.184 488.458 46.088 486.826 47.464C485.226 48.84 482.81 49.528 479.578 49.528C478.618 49.528 477.05 49.256 474.874 48.712C472.73 48.168 470.986 47.368 469.642 46.312L472.09 40.312C473.018 40.792 474.138 41.272 475.45 41.752C476.794 42.2 477.882 42.424 478.714 42.424C479.226 42.424 479.61 42.328 479.866 42.136C480.122 41.944 480.25 41.768 480.25 41.608C480.25 41.384 480.122 41.192 479.866 41.032C479.61 40.84 479.13 40.632 478.426 40.408C476.506 39.736 474.634 38.824 472.81 37.672C471.018 36.488 470.122 34.824 470.122 32.68C470.122 30.248 471.034 28.344 472.858 26.968C474.682 25.592 477.21 24.904 480.442 24.904C481.402 24.904 482.762 25.144 484.522 25.624C486.314 26.072 487.882 26.824 489.226 27.88L486.778 33.88C485.85 33.4 484.874 32.968 483.85 32.584C482.826 32.2 481.898 32.008 481.066 32.008C480.362 32.008 479.866 32.104 479.578 32.296C479.29 32.488 479.146 32.664 479.146 32.824ZM492.042 37.384C492.042 33.48 493.242 30.424 495.642 28.216C498.074 26.008 501.05 24.904 504.57 24.904C508.282 24.904 511.066 26.104 512.922 28.504C514.778 30.904 515.706 33.736 515.706 37V40.024H501.546C501.93 40.92 502.506 41.56 503.274 41.944C504.074 42.328 505.018 42.52 506.106 42.52C507.13 42.52 508.17 42.424 509.226 42.232C510.314 42.04 511.306 41.72 512.202 41.272L514.65 47.176C513.306 48.168 511.642 48.808 509.658 49.096C507.674 49.384 506.202 49.528 505.242 49.528C501.466 49.528 498.314 48.568 495.786 46.648C493.29 44.696 492.042 41.608 492.042 37.384ZM507.354 34.744C507.322 34.232 507.082 33.64 506.634 32.968C506.186 32.264 505.418 31.912 504.33 31.912C503.53 31.912 502.874 32.168 502.362 32.68C501.882 33.16 501.53 33.848 501.306 34.744H507.354Z" fill="#363534"/>
<rect x="545" y="21.5" width="110" height="32" rx="4" fill="#FACAAC"/>
<path d="M555.602 48.8841C555.224 49.114 554.756 48.7763 554.855 48.3452L556.473 41.2874C556.514 41.108 556.454 40.9205 556.315 40.7993L550.883 36.0485C550.551 35.7585 550.73 35.2124 551.168 35.174L558.339 34.5461C558.524 34.5299 558.685 34.4125 558.757 34.2412L561.539 27.6007C561.71 27.1917 562.29 27.1917 562.461 27.6007L565.243 34.2412C565.315 34.4125 565.476 34.5299 565.661 34.5461L572.832 35.174C573.27 35.2124 573.449 35.7585 573.117 36.0485L567.685 40.7993C567.546 40.9205 567.486 41.108 567.527 41.2874L569.145 48.3452C569.244 48.7763 568.776 49.114 568.398 48.8841L562.26 45.149C562.1 45.0518 561.9 45.0518 561.74 45.149L555.602 48.8841Z" fill="#363534"/>
<path d="M592.96 44.32H591.12V46.88H588.5V44.32H582.96L582.62 42.18L589.18 34.08H591.12V42.18H593.22L592.96 44.32ZM585.42 42.18H588.5V38.24L585.42 42.18ZM595.755 42.58C596.169 42.58 596.522 42.7467 596.815 43.08C597.122 43.4133 597.275 43.8467 597.275 44.38C597.275 45.1133 597.022 45.8867 596.515 46.7C596.022 47.5267 595.395 48.1533 594.635 48.58L594.055 47.34C594.402 47.0467 594.689 46.7733 594.915 46.52C595.155 46.2667 595.322 45.9267 595.415 45.5C595.189 45.5 594.949 45.3533 594.695 45.06C594.442 44.7533 594.315 44.42 594.315 44.06C594.315 43.7 594.455 43.3667 594.735 43.06C595.015 42.74 595.355 42.58 595.755 42.58ZM598.906 43.7H601.086V37.16L600.046 37.76L598.826 36L601.946 34.18H603.686V43.7H605.226L605.446 45.5H599.106L598.906 43.7Z" fill="#363534"/>
<path d="M618.06 45.184C617.328 44.224 616.782 43.162 616.422 41.998C616.062 40.834 615.882 39.748 615.882 38.74C615.882 37.732 616.056 36.658 616.404 35.518C616.764 34.366 617.316 33.298 618.06 32.314L619.23 32.728C618.702 33.328 618.246 34.264 617.862 35.536C617.478 36.796 617.286 37.858 617.286 38.722C617.286 39.61 617.478 40.696 617.862 41.98C618.246 43.264 618.696 44.194 619.212 44.77L618.06 45.184ZM623.838 34.078C625.05 34.078 625.956 34.378 626.556 34.978C627.168 35.578 627.474 36.268 627.474 37.048C627.474 37.672 627.282 38.224 626.898 38.704C626.526 39.172 626.082 39.49 625.566 39.658C626.154 39.802 626.652 40.132 627.06 40.648C627.48 41.164 627.69 41.788 627.69 42.52C627.69 43.456 627.318 44.248 626.574 44.896C625.83 45.544 624.828 45.868 623.568 45.868C622.908 45.868 622.26 45.76 621.624 45.544C621 45.34 620.466 45.118 620.022 44.878L620.778 43.906C621.21 44.17 621.636 44.368 622.056 44.5C622.476 44.644 622.998 44.716 623.622 44.716C624.294 44.716 624.9 44.53 625.44 44.158C625.992 43.774 626.268 43.24 626.268 42.556C626.268 41.836 626.004 41.266 625.476 40.846C624.96 40.426 624.114 40.216 622.938 40.216H622.506L622.29 39.154H623.046C623.982 39.154 624.714 38.968 625.242 38.596C625.782 38.212 626.052 37.702 626.052 37.066C626.052 36.586 625.848 36.166 625.44 35.806C625.032 35.434 624.48 35.248 623.784 35.248C623.16 35.248 622.608 35.35 622.128 35.554C621.648 35.746 621.258 35.938 620.958 36.13L620.256 35.194C620.76 34.87 621.3 34.606 621.876 34.402C622.464 34.186 623.118 34.078 623.838 34.078ZM634.99 44.5H630.112L629.95 43.42H631.876V36.022C631.672 36.166 631.462 36.31 631.246 36.454C631.042 36.586 630.838 36.718 630.634 36.85C630.514 36.694 630.4 36.532 630.292 36.364C630.184 36.196 630.076 36.034 629.968 35.878L632.362 34.312H633.316V43.42H634.846C634.87 43.612 634.894 43.798 634.918 43.978C634.954 44.146 634.978 44.32 634.99 44.5ZM636.997 45.31L642.487 35.482H637.015L636.835 34.312H643.765L644.233 34.942L638.347 45.742L636.997 45.31ZM646.182 32.314C646.902 33.274 647.442 34.336 647.802 35.5C648.174 36.652 648.36 37.732 648.36 38.74C648.36 39.748 648.18 40.828 647.82 41.98C647.46 43.132 646.914 44.2 646.182 45.184L645.03 44.77C645.546 44.182 645.996 43.252 646.38 41.98C646.764 40.696 646.956 39.622 646.956 38.758C646.956 37.87 646.764 36.79 646.38 35.518C645.996 34.246 645.546 33.322 645.03 32.746L646.182 32.314Z" fill="#726D6D"/>
</svg>
