<svg width="435" height="794" viewBox="0 0 435 794" fill="none" xmlns="http://www.w3.org/2000/svg">
<path d="M0 30C0 13.4315 13.4315 0 30 0H435V794H30C13.4314 794 0 780.569 0 764V30Z" fill="#363534"/>
<path d="M138.957 97V88.52L131.661 75.784L135.949 75.24L141.005 84.328L146.285 75.24H150.669L143.117 88.68V97H138.957ZM159.996 97.384C157.542 97.3627 155.622 96.616 154.236 95.144C152.87 93.672 152.188 91.688 152.188 89.192C152.188 86.7173 152.902 84.744 154.332 83.272C155.782 81.8 157.756 81.064 160.252 81.064C162.833 81.064 164.828 81.832 166.236 83.368C167.665 84.8827 168.38 86.8773 168.38 89.352C168.38 91.8267 167.612 93.7787 166.076 95.208C164.54 96.6373 162.513 97.3627 159.996 97.384ZM164.092 89.352C164.092 87.88 163.761 86.728 163.1 85.896C162.46 85.0427 161.542 84.616 160.348 84.616C159.132 84.616 158.182 84.9893 157.5 85.736C156.817 86.4827 156.476 87.624 156.476 89.16C156.476 90.696 156.764 91.8587 157.34 92.648C157.937 93.4373 158.844 93.832 160.06 93.832C161.254 93.832 162.225 93.48 162.972 92.776C163.718 92.0507 164.092 90.9093 164.092 89.352ZM182.743 95.464C182.039 96.1253 181.175 96.648 180.151 97.032C179.127 97.4373 178.199 97.64 177.367 97.64C175.255 97.64 173.751 97.0213 172.855 95.784C171.98 94.5253 171.543 93.0107 171.543 91.24V81.48H175.735V91.048C175.735 92.0293 175.969 92.7867 176.439 93.32C176.908 93.832 177.591 94.088 178.487 94.088C179.041 94.088 179.628 93.9493 180.247 93.672C180.865 93.3947 181.431 93.0747 181.943 92.712V81.48H186.103V97H183.927L182.743 95.464ZM198.621 81.48L199.453 84.808C198.749 84.808 197.928 85.0107 196.989 85.416C196.072 85.8213 195.165 86.4187 194.269 87.208V97H190.109V81.48H192.285L193.661 83.752C194.301 83.1973 195.08 82.6853 195.997 82.216C196.914 81.7253 197.789 81.48 198.621 81.48ZM217.972 75.24C220.084 75.24 221.802 75.7093 223.124 76.648C224.447 77.5653 225.108 79.1227 225.108 81.32C225.108 82.1307 224.916 82.8667 224.532 83.528C224.17 84.168 223.69 84.7227 223.092 85.192C224.074 85.704 224.874 86.3973 225.492 87.272C226.132 88.1467 226.452 89.256 226.452 90.6C226.452 92.6053 225.748 94.1733 224.34 95.304C222.954 96.4347 221.098 97 218.772 97H209.844V75.24H217.972ZM217.364 78.696H213.972V84.104H217.044C218.196 84.104 219.092 83.8907 219.732 83.464C220.394 83.016 220.724 82.3227 220.724 81.384C220.724 80.36 220.426 79.656 219.828 79.272C219.231 78.888 218.41 78.696 217.364 78.696ZM218.74 87.464H213.972V93.576H218.452C219.562 93.576 220.447 93.32 221.108 92.808C221.791 92.296 222.132 91.5707 222.132 90.632C222.132 89.608 221.823 88.8293 221.204 88.296C220.586 87.7413 219.764 87.464 218.74 87.464ZM233.088 92.36C233.088 92.808 233.269 93.2133 233.632 93.576C233.995 93.9173 234.475 94.088 235.072 94.088C235.648 94.088 236.224 93.96 236.8 93.704C237.397 93.448 237.963 93.064 238.496 92.552V90.184H235.36C234.635 90.184 234.069 90.408 233.664 90.856C233.28 91.304 233.088 91.8053 233.088 92.36ZM235.136 97.384C233.237 97.384 231.829 96.9253 230.912 96.008C229.995 95.0693 229.536 93.8533 229.536 92.36C229.536 90.76 230.08 89.5333 231.168 88.68C232.256 87.8267 233.675 87.4 235.424 87.4H238.464C238.443 86.6107 238.208 86.0027 237.76 85.576C237.333 85.128 236.736 84.904 235.968 84.904C235.243 84.904 234.453 85.0107 233.6 85.224C232.747 85.416 232.032 85.6507 231.456 85.928L230.336 82.472C230.933 82.0667 231.84 81.736 233.056 81.48C234.293 81.2027 235.243 81.064 235.904 81.064C237.76 81.064 239.349 81.608 240.672 82.696C241.995 83.7627 242.656 85.128 242.656 86.792V97H240.512L239.488 95.688C238.912 96.136 238.229 96.5307 237.44 96.872C236.672 97.2133 235.904 97.384 235.136 97.384ZM255.604 85.672C254.857 85.3307 254.164 85.0747 253.524 84.904C252.884 84.712 252.201 84.616 251.476 84.616C250.943 84.616 250.527 84.7227 250.228 84.936C249.951 85.128 249.812 85.4053 249.812 85.768C249.812 86.024 249.983 86.2693 250.324 86.504C250.687 86.7387 251.263 86.9947 252.052 87.272C253.353 87.7413 254.559 88.4027 255.668 89.256C256.777 90.088 257.332 91.176 257.332 92.52C257.332 94.056 256.777 95.2507 255.668 96.104C254.58 96.9573 252.98 97.384 250.868 97.384C250.207 97.384 249.321 97.256 248.212 97C247.124 96.744 246.217 96.3387 245.492 95.784L246.74 92.776C247.487 93.1173 248.201 93.384 248.884 93.576C249.588 93.7467 250.228 93.832 250.804 93.832C251.572 93.832 252.159 93.7253 252.564 93.512C252.969 93.2987 253.172 93.0213 253.172 92.68C253.172 92.2533 252.969 91.8693 252.564 91.528C252.159 91.1867 251.519 90.8773 250.644 90.6C249.407 90.1947 248.233 89.6187 247.124 88.872C246.036 88.104 245.492 87.08 245.492 85.8C245.492 84.328 246.036 83.176 247.124 82.344C248.212 81.4907 249.684 81.064 251.54 81.064C252.201 81.064 253.055 81.2027 254.1 81.48C255.145 81.7573 256.063 82.1627 256.852 82.696L255.604 85.672ZM264.649 74.408V87.144L271.305 81.032L273.641 83.976L269.289 87.784L274.985 97H270.217L266.312 90.44L264.649 91.912V97H260.521V74.76L264.649 74.408ZM285.204 97.384C282.516 97.384 280.393 96.648 278.836 95.176C277.3 93.704 276.532 91.7307 276.532 89.256C276.532 86.7813 277.225 84.7973 278.612 83.304C280.02 81.8107 281.929 81.064 284.34 81.064C286.772 81.064 288.553 81.8747 289.684 83.496C290.836 85.096 291.412 86.9947 291.412 89.192V90.472H280.948C281.14 91.496 281.609 92.3173 282.356 92.936C283.102 93.5333 284.084 93.832 285.3 93.832C286.004 93.832 286.633 93.7467 287.188 93.576C287.764 93.384 288.425 93.1173 289.172 92.776L290.388 95.784C289.662 96.3387 288.777 96.744 287.732 97C286.708 97.256 285.865 97.384 285.204 97.384ZM287.476 87.688C287.262 86.6427 286.878 85.8747 286.324 85.384C285.769 84.872 285.076 84.616 284.244 84.616C283.39 84.616 282.676 84.8827 282.1 85.416C281.524 85.928 281.15 86.6853 280.98 87.688H287.476ZM304.209 96.68C303.868 96.9573 303.377 97.1813 302.737 97.352C302.118 97.544 301.564 97.64 301.073 97.64C299.153 97.64 297.638 97.16 296.529 96.2C295.441 95.2187 294.897 93.832 294.897 92.04V84.712H292.817V81.512H294.897V77.832L299.025 77.096V81.512H301.841L303.121 84.712H299.025V91.304C299.025 92.1147 299.217 92.7867 299.601 93.32C299.985 93.832 300.55 94.088 301.297 94.088C301.574 94.088 301.852 94.056 302.129 93.992C302.406 93.928 302.694 93.8213 302.993 93.672L304.209 96.68Z" fill="#FDEADC"/>
<path d="M129.545 181V164.68H131.585L138.905 174.952L140.057 176.752V164.68H142.385V181H140.321L132.761 170.272L131.849 168.832V181H129.545ZM151.113 181.312C149.353 181.296 148.017 180.72 147.105 179.584C146.193 178.432 145.737 176.952 145.737 175.144C145.753 173.352 146.249 171.896 147.225 170.776C148.201 169.64 149.569 169.064 151.329 169.048C153.153 169.048 154.529 169.632 155.457 170.8C156.401 171.952 156.873 173.44 156.873 175.264C156.873 177.072 156.361 178.528 155.337 179.632C154.313 180.736 152.905 181.296 151.113 181.312ZM154.545 175.264C154.545 174.016 154.297 173 153.801 172.216C153.305 171.416 152.505 171.016 151.401 171.016C150.297 171.016 149.473 171.392 148.929 172.144C148.385 172.88 148.105 173.872 148.089 175.12C148.089 176.416 148.321 177.448 148.785 178.216C149.265 178.968 150.057 179.344 151.161 179.344C152.249 179.344 153.081 178.984 153.657 178.264C154.233 177.544 154.529 176.544 154.545 175.264ZM165.672 180.904C165.464 181.016 165.168 181.128 164.784 181.24C164.416 181.352 164.056 181.408 163.704 181.408C162.568 181.408 161.664 181.096 160.992 180.472C160.32 179.848 159.984 178.944 159.984 177.76V171.256H158.352L158.328 169.504H159.984V166.6L162.288 166.072V169.504H164.4L165.12 171.256H162.288V177.4C162.288 177.992 162.416 178.48 162.672 178.864C162.944 179.232 163.368 179.416 163.944 179.416C164.136 179.416 164.328 179.392 164.52 179.344C164.728 179.28 164.912 179.216 165.072 179.152L165.672 180.904ZM170.3 170.632C170.796 170.152 171.396 169.76 172.1 169.456C172.82 169.136 173.492 168.976 174.116 168.976C175.54 168.976 176.572 169.392 177.212 170.224C177.868 171.04 178.196 172.072 178.196 173.32V181H175.892V173.536C175.892 172.752 175.7 172.128 175.316 171.664C174.948 171.2 174.38 170.96 173.612 170.944C173.132 170.944 172.572 171.096 171.932 171.4C171.308 171.704 170.764 172.104 170.3 172.6V181H167.996V164.32L170.3 164.056V170.632ZM182.741 167.272C182.341 167.272 182.005 167.136 181.733 166.864C181.461 166.576 181.325 166.232 181.325 165.832C181.309 165.432 181.437 165.096 181.709 164.824C181.997 164.536 182.341 164.392 182.741 164.392C183.141 164.392 183.485 164.536 183.773 164.824C184.061 165.096 184.205 165.432 184.205 165.832C184.205 166.232 184.061 166.576 183.773 166.864C183.485 167.136 183.141 167.272 182.741 167.272ZM181.589 181V169.36H183.917V181H181.589ZM189.44 170.896C189.936 170.352 190.576 169.896 191.36 169.528C192.144 169.16 192.872 168.976 193.544 168.976C194.968 168.976 196 169.392 196.64 170.224C197.296 171.04 197.624 172.072 197.624 173.32V181H195.32V173.536C195.32 172.752 195.128 172.128 194.744 171.664C194.376 171.2 193.816 170.96 193.064 170.944C192.584 170.944 192.024 171.096 191.384 171.4C190.744 171.704 190.192 172.104 189.728 172.6V181H187.424V169.36H188.72L189.44 170.896ZM208.722 172.072C208.29 171.72 207.834 171.448 207.354 171.256C206.89 171.048 206.442 170.944 206.01 170.944C204.81 170.944 203.962 171.368 203.466 172.216C202.986 173.064 202.746 174.04 202.746 175.144C202.746 176.312 202.978 177.304 203.442 178.12C203.906 178.936 204.762 179.344 206.01 179.344C206.442 179.344 206.89 179.248 207.354 179.056C207.834 178.848 208.29 178.568 208.722 178.216V172.072ZM211.05 181.624C211.05 182.904 210.61 183.968 209.73 184.816C208.85 185.68 207.514 186.112 205.722 186.112C205.226 186.112 204.546 186.008 203.682 185.8C202.834 185.608 202.138 185.328 201.594 184.96C201.706 184.688 201.818 184.408 201.93 184.12C202.058 183.848 202.178 183.576 202.29 183.304C202.85 183.56 203.37 183.776 203.85 183.952C204.346 184.144 204.946 184.24 205.65 184.24C206.61 184.24 207.362 184.016 207.906 183.568C208.45 183.12 208.722 182.464 208.722 181.6V180.208C208.242 180.544 207.714 180.808 207.138 181C206.562 181.192 206.026 181.288 205.53 181.288C203.834 181.288 202.554 180.712 201.69 179.56C200.826 178.392 200.394 176.928 200.394 175.168C200.394 173.392 200.834 171.92 201.714 170.752C202.61 169.568 203.906 168.976 205.602 168.976C206.162 168.976 206.77 169.112 207.426 169.384C208.098 169.64 208.682 169.976 209.178 170.392L209.73 169.36H211.05V181.624ZM222.683 170.632C223.179 170.152 223.779 169.76 224.483 169.456C225.203 169.136 225.875 168.976 226.499 168.976C227.923 168.976 228.955 169.392 229.595 170.224C230.251 171.04 230.579 172.072 230.579 173.32V181H228.275V173.536C228.275 172.752 228.083 172.128 227.699 171.664C227.331 171.2 226.763 170.96 225.995 170.944C225.515 170.944 224.955 171.096 224.315 171.4C223.691 171.704 223.147 172.104 222.683 172.6V181H220.379V164.32L222.683 164.056V170.632ZM243.979 175.696H235.723C235.803 176.768 236.139 177.648 236.731 178.336C237.323 179.024 238.211 179.368 239.395 179.368C240.083 179.368 240.659 179.296 241.123 179.152C241.603 178.992 242.083 178.8 242.563 178.576L243.283 180.256C242.771 180.608 242.115 180.864 241.315 181.024C240.531 181.2 239.891 181.288 239.395 181.288C237.443 181.288 235.939 180.728 234.883 179.608C233.843 178.472 233.323 176.992 233.323 175.168C233.323 173.36 233.811 171.888 234.787 170.752C235.779 169.616 237.147 169.048 238.891 169.048C240.779 169.048 242.099 169.712 242.851 171.04C243.603 172.368 243.979 173.92 243.979 175.696ZM241.747 174.136C241.603 173.176 241.299 172.416 240.835 171.856C240.371 171.296 239.699 171.016 238.819 171.016C237.923 171.016 237.219 171.304 236.707 171.88C236.195 172.44 235.883 173.192 235.771 174.136H241.747ZM246.744 181V169.36H248.04L248.784 171.016C249.232 170.632 249.792 170.264 250.464 169.912C251.152 169.544 251.808 169.36 252.432 169.36L252.936 171.208C252.296 171.208 251.624 171.384 250.92 171.736C250.232 172.072 249.608 172.512 249.048 173.056V181H246.744ZM264.909 175.696H256.653C256.733 176.768 257.069 177.648 257.661 178.336C258.253 179.024 259.141 179.368 260.325 179.368C261.013 179.368 261.589 179.296 262.053 179.152C262.533 178.992 263.013 178.8 263.493 178.576L264.213 180.256C263.701 180.608 263.045 180.864 262.245 181.024C261.461 181.2 260.821 181.288 260.325 181.288C258.373 181.288 256.869 180.728 255.813 179.608C254.773 178.472 254.253 176.992 254.253 175.168C254.253 173.36 254.741 171.888 255.717 170.752C256.709 169.616 258.077 169.048 259.821 169.048C261.709 169.048 263.029 169.712 263.781 171.04C264.533 172.368 264.909 173.92 264.909 175.696ZM262.677 174.136C262.533 173.176 262.229 172.416 261.765 171.856C261.301 171.296 260.629 171.016 259.749 171.016C258.853 171.016 258.149 171.304 257.637 171.88C257.125 172.44 256.813 173.192 256.701 174.136H262.677ZM275.626 182.464L276.298 180.688L271.906 169.696L274.234 169.36L277.474 177.712L280.546 169.36H282.922L279.01 179.608L277.762 183.112C277.458 183.912 276.93 184.592 276.178 185.152C275.442 185.712 274.626 186.096 273.73 186.304L272.962 184.528C273.538 184.272 274.074 184 274.57 183.712C275.066 183.424 275.418 183.008 275.626 182.464ZM295.003 175.696H286.747C286.827 176.768 287.163 177.648 287.755 178.336C288.347 179.024 289.235 179.368 290.419 179.368C291.107 179.368 291.683 179.296 292.147 179.152C292.627 178.992 293.107 178.8 293.587 178.576L294.307 180.256C293.795 180.608 293.139 180.864 292.339 181.024C291.555 181.2 290.915 181.288 290.419 181.288C288.467 181.288 286.963 180.728 285.907 179.608C284.867 178.472 284.347 176.992 284.347 175.168C284.347 173.36 284.835 171.888 285.811 170.752C286.803 169.616 288.171 169.048 289.915 169.048C291.803 169.048 293.123 169.712 293.875 171.04C294.627 172.368 295.003 173.92 295.003 175.696ZM292.771 174.136C292.627 173.176 292.323 172.416 291.859 171.856C291.395 171.296 290.723 171.016 289.843 171.016C288.947 171.016 288.243 171.304 287.731 171.88C287.219 172.44 286.907 173.192 286.795 174.136H292.771ZM303.672 180.904C303.464 181.016 303.168 181.128 302.784 181.24C302.416 181.352 302.056 181.408 301.704 181.408C300.568 181.408 299.664 181.096 298.992 180.472C298.32 179.848 297.984 178.944 297.984 177.76V171.256H296.352L296.328 169.504H297.984V166.6L300.288 166.072V169.504H302.4L303.12 171.256H300.288V177.4C300.288 177.992 300.416 178.48 300.672 178.864C300.944 179.232 301.368 179.416 301.944 179.416C302.136 179.416 302.328 179.392 302.52 179.344C302.728 179.28 302.912 179.216 303.072 179.152L303.672 180.904ZM305.948 178.12C306.348 178.12 306.684 178.264 306.956 178.552C307.228 178.824 307.364 179.16 307.364 179.56C307.364 179.96 307.228 180.304 306.956 180.592C306.684 180.864 306.348 181 305.948 181C305.532 181 305.18 180.864 304.892 180.592C304.62 180.304 304.484 179.96 304.484 179.56C304.484 179.16 304.62 178.824 304.892 178.552C305.18 178.264 305.532 178.12 305.948 178.12ZM54.3046 201.432H59.8006V208.392C59.8006 208.52 59.7926 208.656 59.7766 208.8C59.7766 208.928 59.7766 209.056 59.7766 209.184L59.8006 209.208C59.2566 209.512 58.5366 209.776 57.6406 210C56.7606 210.224 55.8966 210.336 55.0486 210.336C52.5366 210.336 50.6246 209.528 49.3126 207.912C48.0166 206.296 47.3686 204.304 47.3686 201.936C47.3686 199.408 48.0886 197.344 49.5286 195.744C50.9846 194.144 52.9126 193.344 55.3126 193.344C55.8086 193.344 56.4886 193.424 57.3526 193.584C58.2326 193.728 58.9606 193.976 59.5366 194.328L58.8166 195.984C58.2246 195.776 57.6966 195.616 57.2326 195.504C56.7686 195.376 56.1446 195.312 55.3606 195.312C53.7766 195.312 52.4486 195.88 51.3766 197.016C50.3046 198.136 49.7686 199.768 49.7686 201.912C49.7686 203.896 50.2326 205.472 51.1606 206.64C52.0886 207.792 53.3686 208.368 55.0006 208.368C55.5446 208.368 56.0326 208.328 56.4646 208.248C56.9126 208.168 57.3126 208.072 57.6646 207.96V203.184H54.1126L54.3046 201.432ZM68.0626 210.312C66.3026 210.296 64.9666 209.72 64.0546 208.584C63.1426 207.432 62.6866 205.952 62.6866 204.144C62.7026 202.352 63.1986 200.896 64.1746 199.776C65.1506 198.64 66.5186 198.064 68.2786 198.048C70.1026 198.048 71.4786 198.632 72.4066 199.8C73.3506 200.952 73.8226 202.44 73.8226 204.264C73.8226 206.072 73.3106 207.528 72.2866 208.632C71.2626 209.736 69.8546 210.296 68.0626 210.312ZM71.4946 204.264C71.4946 203.016 71.2466 202 70.7506 201.216C70.2546 200.416 69.4546 200.016 68.3506 200.016C67.2466 200.016 66.4226 200.392 65.8786 201.144C65.3346 201.88 65.0546 202.872 65.0386 204.12C65.0386 205.416 65.2706 206.448 65.7346 207.216C66.2146 207.968 67.0066 208.344 68.1106 208.344C69.1986 208.344 70.0306 207.984 70.6066 207.264C71.1826 206.544 71.4786 205.544 71.4946 204.264ZM83.9007 206.64C83.9007 207.088 84.0607 207.504 84.3807 207.888C84.7007 208.272 85.1887 208.464 85.8447 208.464C86.4367 208.464 86.9887 208.32 87.5007 208.032C88.0287 207.744 88.4927 207.376 88.8927 206.928V204.576H86.0607C85.3567 204.576 84.8207 204.784 84.4527 205.2C84.0847 205.616 83.9007 206.096 83.9007 206.64ZM82.5327 199.08C82.9807 198.776 83.6287 198.528 84.4767 198.336C85.3247 198.144 85.9967 198.048 86.4927 198.048C87.8367 198.048 88.9567 198.424 89.8527 199.176C90.7487 199.928 91.1967 200.904 91.1967 202.104V210H89.9007C89.7887 209.824 89.6847 209.64 89.5887 209.448C89.4927 209.256 89.3967 209.072 89.3007 208.896C88.9007 209.248 88.3887 209.568 87.7647 209.856C87.1407 210.144 86.5167 210.288 85.8927 210.288C84.5167 210.288 83.4927 209.944 82.8207 209.256C82.1647 208.568 81.8367 207.696 81.8367 206.64C81.8367 205.472 82.2287 204.584 83.0127 203.976C83.8127 203.352 84.8447 203.04 86.1087 203.04H88.8687C88.8687 202.24 88.7087 201.552 88.3887 200.976C88.0687 200.4 87.4527 200.112 86.5407 200.112C85.8527 200.112 85.2287 200.2 84.6687 200.376C84.1087 200.536 83.6127 200.712 83.1807 200.904L82.5327 199.08ZM96.9522 199.632C97.4482 199.152 98.0482 198.76 98.7522 198.456C99.4722 198.136 100.144 197.976 100.768 197.976C102.192 197.976 103.224 198.392 103.864 199.224C104.52 200.04 104.848 201.072 104.848 202.32V210H102.544V202.536C102.544 201.752 102.352 201.128 101.968 200.664C101.6 200.2 101.032 199.96 100.264 199.944C99.7842 199.944 99.2242 200.096 98.5842 200.4C97.9602 200.704 97.4162 201.104 96.9522 201.6V210H94.6482V193.32L96.9522 193.056V199.632ZM118.249 204.696H109.993C110.073 205.768 110.409 206.648 111.001 207.336C111.593 208.024 112.481 208.368 113.665 208.368C114.353 208.368 114.929 208.296 115.393 208.152C115.873 207.992 116.353 207.8 116.833 207.576L117.553 209.256C117.041 209.608 116.385 209.864 115.585 210.024C114.801 210.2 114.161 210.288 113.665 210.288C111.713 210.288 110.209 209.728 109.153 208.608C108.113 207.472 107.593 205.992 107.593 204.168C107.593 202.36 108.081 200.888 109.057 199.752C110.049 198.616 111.417 198.048 113.161 198.048C115.049 198.048 116.369 198.712 117.121 200.04C117.873 201.368 118.249 202.92 118.249 204.696ZM116.017 203.136C115.873 202.176 115.569 201.416 115.105 200.856C114.641 200.296 113.969 200.016 113.089 200.016C112.193 200.016 111.489 200.304 110.977 200.88C110.465 201.44 110.153 202.192 110.041 203.136H116.017ZM122.526 206.64C122.526 207.088 122.686 207.504 123.006 207.888C123.326 208.272 123.814 208.464 124.47 208.464C125.062 208.464 125.614 208.32 126.126 208.032C126.654 207.744 127.118 207.376 127.518 206.928V204.576H124.686C123.982 204.576 123.446 204.784 123.078 205.2C122.71 205.616 122.526 206.096 122.526 206.64ZM121.158 199.08C121.606 198.776 122.254 198.528 123.102 198.336C123.95 198.144 124.622 198.048 125.118 198.048C126.462 198.048 127.582 198.424 128.478 199.176C129.374 199.928 129.822 200.904 129.822 202.104V210H128.526C128.414 209.824 128.31 209.64 128.214 209.448C128.118 209.256 128.022 209.072 127.926 208.896C127.526 209.248 127.014 209.568 126.39 209.856C125.766 210.144 125.142 210.288 124.518 210.288C123.142 210.288 122.118 209.944 121.446 209.256C120.79 208.568 120.462 207.696 120.462 206.64C120.462 205.472 120.854 204.584 121.638 203.976C122.438 203.352 123.47 203.04 124.734 203.04H127.494C127.494 202.24 127.334 201.552 127.014 200.976C126.694 200.4 126.078 200.112 125.166 200.112C124.478 200.112 123.854 200.2 123.294 200.376C122.734 200.536 122.238 200.712 121.806 200.904L121.158 199.08ZM138.193 199.944C136.993 199.944 136.145 200.368 135.649 201.216C135.169 202.064 134.929 203.04 134.929 204.144C134.929 205.312 135.161 206.304 135.625 207.12C136.089 207.936 136.945 208.344 138.193 208.344C138.625 208.344 139.073 208.248 139.537 208.056C140.017 207.848 140.473 207.568 140.905 207.216V201.072C140.473 200.72 140.017 200.448 139.537 200.256C139.073 200.048 138.625 199.944 138.193 199.944ZM143.233 193.08V210H141.913L141.289 208.92C140.793 209.352 140.209 209.696 139.537 209.952C138.881 210.192 138.273 210.312 137.713 210.312C136.017 210.312 134.737 209.728 133.873 208.56C133.009 207.392 132.577 205.928 132.577 204.168C132.577 202.392 133.017 200.92 133.897 199.752C134.793 198.568 136.089 197.976 137.785 197.976C138.265 197.976 138.785 198.08 139.345 198.288C139.905 198.48 140.425 198.736 140.905 199.056V193.32L143.233 193.08ZM154.002 206.64C154.002 207.088 154.162 207.504 154.482 207.888C154.802 208.272 155.29 208.464 155.946 208.464C156.538 208.464 157.09 208.32 157.602 208.032C158.13 207.744 158.594 207.376 158.994 206.928V204.576H156.162C155.458 204.576 154.922 204.784 154.554 205.2C154.186 205.616 154.002 206.096 154.002 206.64ZM152.634 199.08C153.082 198.776 153.73 198.528 154.578 198.336C155.426 198.144 156.098 198.048 156.594 198.048C157.938 198.048 159.058 198.424 159.954 199.176C160.85 199.928 161.298 200.904 161.298 202.104V210H160.002C159.89 209.824 159.786 209.64 159.69 209.448C159.594 209.256 159.498 209.072 159.402 208.896C159.002 209.248 158.49 209.568 157.866 209.856C157.242 210.144 156.618 210.288 155.994 210.288C154.618 210.288 153.594 209.944 152.922 209.256C152.266 208.568 151.938 207.696 151.938 206.64C151.938 205.472 152.33 204.584 153.114 203.976C153.914 203.352 154.946 203.04 156.21 203.04H158.97C158.97 202.24 158.81 201.552 158.49 200.976C158.17 200.4 157.554 200.112 156.642 200.112C155.954 200.112 155.33 200.2 154.77 200.376C154.21 200.536 153.714 200.712 153.282 200.904L152.634 199.08ZM166.694 199.896C167.19 199.352 167.83 198.896 168.614 198.528C169.398 198.16 170.126 197.976 170.798 197.976C172.222 197.976 173.254 198.392 173.894 199.224C174.55 200.04 174.878 201.072 174.878 202.32V210H172.574V202.536C172.574 201.752 172.382 201.128 171.998 200.664C171.63 200.2 171.07 199.96 170.318 199.944C169.838 199.944 169.278 200.096 168.638 200.4C167.998 200.704 167.446 201.104 166.982 201.6V210H164.678V198.36H165.974L166.694 199.896ZM183.264 199.944C182.064 199.944 181.216 200.368 180.72 201.216C180.24 202.064 180 203.04 180 204.144C180 205.312 180.232 206.304 180.696 207.12C181.16 207.936 182.016 208.344 183.264 208.344C183.696 208.344 184.144 208.248 184.608 208.056C185.088 207.848 185.544 207.568 185.976 207.216V201.072C185.544 200.72 185.088 200.448 184.608 200.256C184.144 200.048 183.696 199.944 183.264 199.944ZM188.304 193.08V210H186.984L186.36 208.92C185.864 209.352 185.28 209.696 184.608 209.952C183.952 210.192 183.344 210.312 182.784 210.312C181.088 210.312 179.808 209.728 178.944 208.56C178.08 207.392 177.648 205.928 177.648 204.168C177.648 202.392 178.088 200.92 178.968 199.752C179.864 198.568 181.16 197.976 182.856 197.976C183.336 197.976 183.856 198.08 184.416 198.288C184.976 198.48 185.496 198.736 185.976 199.056V193.32L188.304 193.08ZM202.553 200.016C201.465 200.016 200.649 200.416 200.105 201.216C199.577 202 199.305 202.976 199.289 204.144C199.289 205.36 199.545 206.368 200.057 207.168C200.569 207.952 201.377 208.344 202.481 208.344C203.185 208.344 203.737 208.272 204.137 208.128C204.553 207.984 205.009 207.792 205.505 207.552L206.201 209.208C205.689 209.56 205.065 209.832 204.329 210.024C203.593 210.216 202.977 210.312 202.481 210.312C200.689 210.312 199.313 209.744 198.353 208.608C197.409 207.472 196.937 205.992 196.937 204.168C196.953 202.36 197.441 200.888 198.401 199.752C199.377 198.616 200.769 198.048 202.577 198.048C203.057 198.048 203.657 198.152 204.377 198.36C205.113 198.552 205.737 198.824 206.249 199.176L205.577 200.808C205.081 200.6 204.625 200.416 204.209 200.256C203.793 200.096 203.241 200.016 202.553 200.016ZM211.304 199.632C211.8 199.152 212.4 198.76 213.104 198.456C213.824 198.136 214.496 197.976 215.12 197.976C216.544 197.976 217.576 198.392 218.216 199.224C218.872 200.04 219.2 201.072 219.2 202.32V210H216.896V202.536C216.896 201.752 216.704 201.128 216.32 200.664C215.952 200.2 215.384 199.96 214.616 199.944C214.136 199.944 213.576 200.096 212.936 200.4C212.312 200.704 211.768 201.104 211.304 201.6V210H209V193.32L211.304 193.056V199.632ZM227.32 210.312C225.56 210.296 224.224 209.72 223.312 208.584C222.4 207.432 221.944 205.952 221.944 204.144C221.96 202.352 222.456 200.896 223.432 199.776C224.408 198.64 225.776 198.064 227.536 198.048C229.36 198.048 230.736 198.632 231.664 199.8C232.608 200.952 233.08 202.44 233.08 204.264C233.08 206.072 232.568 207.528 231.544 208.632C230.52 209.736 229.112 210.296 227.32 210.312ZM230.752 204.264C230.752 203.016 230.504 202 230.008 201.216C229.512 200.416 228.712 200.016 227.608 200.016C226.504 200.016 225.68 200.392 225.136 201.144C224.592 201.88 224.312 202.872 224.296 204.12C224.296 205.416 224.528 206.448 224.992 207.216C225.472 207.968 226.264 208.344 227.368 208.344C228.456 208.344 229.288 207.984 229.864 207.264C230.44 206.544 230.736 205.544 230.752 204.264ZM240.727 210.312C238.967 210.296 237.631 209.72 236.719 208.584C235.807 207.432 235.351 205.952 235.351 204.144C235.367 202.352 235.863 200.896 236.839 199.776C237.815 198.64 239.183 198.064 240.943 198.048C242.767 198.048 244.143 198.632 245.071 199.8C246.015 200.952 246.487 202.44 246.487 204.264C246.487 206.072 245.975 207.528 244.951 208.632C243.927 209.736 242.519 210.296 240.727 210.312ZM244.159 204.264C244.159 203.016 243.911 202 243.415 201.216C242.919 200.416 242.119 200.016 241.015 200.016C239.911 200.016 239.087 200.392 238.543 201.144C237.999 201.88 237.719 202.872 237.703 204.12C237.703 205.416 237.935 206.448 238.399 207.216C238.879 207.968 239.671 208.344 240.775 208.344C241.863 208.344 242.695 207.984 243.271 207.264C243.847 206.544 244.143 205.544 244.159 204.264ZM256.053 200.808C255.605 200.6 255.133 200.416 254.637 200.256C254.157 200.096 253.605 200.016 252.981 200.016C252.373 200.016 251.885 200.144 251.517 200.4C251.165 200.64 250.989 200.968 250.989 201.384C251.005 201.736 251.213 202.048 251.613 202.32C252.029 202.576 252.589 202.824 253.293 203.064C254.253 203.416 255.149 203.896 255.981 204.504C256.813 205.096 257.229 205.872 257.229 206.832C257.229 207.92 256.821 208.776 256.005 209.4C255.205 210.008 254.037 210.312 252.501 210.312C252.005 210.312 251.365 210.224 250.581 210.048C249.797 209.872 249.157 209.608 248.661 209.256L249.381 207.552C249.877 207.792 250.389 207.984 250.917 208.128C251.445 208.272 251.973 208.344 252.501 208.344C253.269 208.344 253.861 208.224 254.277 207.984C254.709 207.744 254.925 207.4 254.925 206.952C254.925 206.504 254.693 206.12 254.229 205.8C253.781 205.464 253.181 205.176 252.429 204.936C251.517 204.632 250.653 204.208 249.837 203.664C249.021 203.12 248.613 202.376 248.613 201.432C248.613 200.376 249.005 199.552 249.789 198.96C250.589 198.352 251.669 198.048 253.029 198.048C253.525 198.048 254.149 198.144 254.901 198.336C255.653 198.528 256.277 198.8 256.773 199.152L256.053 200.808ZM270.007 204.696H261.751C261.831 205.768 262.167 206.648 262.759 207.336C263.351 208.024 264.239 208.368 265.423 208.368C266.111 208.368 266.687 208.296 267.151 208.152C267.631 207.992 268.111 207.8 268.591 207.576L269.311 209.256C268.799 209.608 268.143 209.864 267.343 210.024C266.559 210.2 265.919 210.288 265.423 210.288C263.471 210.288 261.967 209.728 260.911 208.608C259.871 207.472 259.351 205.992 259.351 204.168C259.351 202.36 259.839 200.888 260.815 199.752C261.807 198.616 263.175 198.048 264.919 198.048C266.807 198.048 268.127 198.712 268.879 200.04C269.631 201.368 270.007 202.92 270.007 204.696ZM267.775 203.136C267.631 202.176 267.327 201.416 266.863 200.856C266.399 200.296 265.727 200.016 264.847 200.016C263.951 200.016 263.247 200.304 262.735 200.88C262.223 201.44 261.911 202.192 261.799 203.136H267.775ZM285.115 200.808C284.667 200.6 284.195 200.416 283.699 200.256C283.219 200.096 282.667 200.016 282.043 200.016C281.435 200.016 280.947 200.144 280.579 200.4C280.227 200.64 280.051 200.968 280.051 201.384C280.067 201.736 280.275 202.048 280.675 202.32C281.091 202.576 281.651 202.824 282.355 203.064C283.315 203.416 284.211 203.896 285.043 204.504C285.875 205.096 286.291 205.872 286.291 206.832C286.291 207.92 285.883 208.776 285.067 209.4C284.267 210.008 283.099 210.312 281.563 210.312C281.067 210.312 280.427 210.224 279.643 210.048C278.859 209.872 278.219 209.608 277.723 209.256L278.443 207.552C278.939 207.792 279.451 207.984 279.979 208.128C280.507 208.272 281.035 208.344 281.563 208.344C282.331 208.344 282.923 208.224 283.339 207.984C283.771 207.744 283.987 207.4 283.987 206.952C283.987 206.504 283.755 206.12 283.291 205.8C282.843 205.464 282.243 205.176 281.491 204.936C280.579 204.632 279.715 204.208 278.899 203.664C278.083 203.12 277.675 202.376 277.675 201.432C277.675 200.376 278.067 199.552 278.851 198.96C279.651 198.352 280.731 198.048 282.091 198.048C282.587 198.048 283.211 198.144 283.963 198.336C284.715 198.528 285.339 198.8 285.835 199.152L285.115 200.808ZM293.789 210.312C292.029 210.296 290.693 209.72 289.781 208.584C288.869 207.432 288.413 205.952 288.413 204.144C288.429 202.352 288.925 200.896 289.901 199.776C290.877 198.64 292.245 198.064 294.005 198.048C295.829 198.048 297.205 198.632 298.133 199.8C299.077 200.952 299.549 202.44 299.549 204.264C299.549 206.072 299.037 207.528 298.013 208.632C296.989 209.736 295.581 210.296 293.789 210.312ZM297.221 204.264C297.221 203.016 296.973 202 296.477 201.216C295.981 200.416 295.181 200.016 294.077 200.016C292.973 200.016 292.149 200.392 291.605 201.144C291.061 201.88 290.781 202.872 290.765 204.12C290.765 205.416 290.997 206.448 291.461 207.216C291.941 207.968 292.733 208.344 293.837 208.344C294.925 208.344 295.757 207.984 296.333 207.264C296.909 206.544 297.205 205.544 297.221 204.264ZM311.731 199.872C312.227 199.328 312.859 198.88 313.627 198.528C314.411 198.16 315.147 197.976 315.835 197.976C317.259 197.976 318.291 198.392 318.931 199.224C319.587 200.04 319.915 201.072 319.915 202.32V210H317.587V202.536C317.587 201.752 317.395 201.128 317.011 200.664C316.643 200.2 316.083 199.96 315.331 199.944C314.835 199.944 314.307 200.08 313.747 200.352C313.187 200.624 312.675 200.984 312.211 201.432C312.227 201.592 312.235 201.744 312.235 201.888C312.251 202.016 312.259 202.16 312.259 202.32V210H309.931V202.536C309.931 201.752 309.747 201.128 309.379 200.664C309.011 200.2 308.459 199.96 307.723 199.944C307.243 199.944 306.739 200.064 306.211 200.304C305.683 200.544 305.195 200.888 304.747 201.336V210H302.443V198.36H303.739L304.363 199.608C304.875 199.128 305.483 198.736 306.187 198.432C306.907 198.128 307.579 197.976 308.203 197.976C309.083 197.976 309.811 198.152 310.387 198.504C310.979 198.84 311.427 199.296 311.731 199.872ZM333.311 204.696H325.055C325.135 205.768 325.471 206.648 326.063 207.336C326.655 208.024 327.543 208.368 328.727 208.368C329.415 208.368 329.991 208.296 330.455 208.152C330.935 207.992 331.415 207.8 331.895 207.576L332.615 209.256C332.103 209.608 331.447 209.864 330.647 210.024C329.863 210.2 329.223 210.288 328.727 210.288C326.775 210.288 325.271 209.728 324.215 208.608C323.175 207.472 322.655 205.992 322.655 204.168C322.655 202.36 323.143 200.888 324.119 199.752C325.111 198.616 326.479 198.048 328.223 198.048C330.111 198.048 331.431 198.712 332.183 200.04C332.935 201.368 333.311 202.92 333.311 204.696ZM331.079 203.136C330.935 202.176 330.631 201.416 330.167 200.856C329.703 200.296 329.031 200.016 328.151 200.016C327.255 200.016 326.551 200.304 326.039 200.88C325.527 201.44 325.215 202.192 325.103 203.136H331.079ZM341.98 209.904C341.772 210.016 341.476 210.128 341.092 210.24C340.724 210.352 340.364 210.408 340.012 210.408C338.876 210.408 337.972 210.096 337.3 209.472C336.628 208.848 336.292 207.944 336.292 206.76V200.256H334.66L334.636 198.504H336.292V195.6L338.596 195.072V198.504H340.708L341.428 200.256H338.596V206.4C338.596 206.992 338.724 207.48 338.98 207.864C339.252 208.232 339.676 208.416 340.252 208.416C340.444 208.416 340.636 208.392 340.828 208.344C341.036 208.28 341.22 208.216 341.38 208.152L341.98 209.904ZM346.608 199.632C347.104 199.152 347.704 198.76 348.408 198.456C349.128 198.136 349.8 197.976 350.424 197.976C351.848 197.976 352.88 198.392 353.52 199.224C354.176 200.04 354.504 201.072 354.504 202.32V210H352.2V202.536C352.2 201.752 352.008 201.128 351.624 200.664C351.256 200.2 350.688 199.96 349.92 199.944C349.44 199.944 348.88 200.096 348.24 200.4C347.616 200.704 347.072 201.104 346.608 201.6V210H344.304V193.32L346.608 193.056V199.632ZM359.049 196.272C358.649 196.272 358.313 196.136 358.041 195.864C357.769 195.576 357.633 195.232 357.633 194.832C357.617 194.432 357.745 194.096 358.017 193.824C358.305 193.536 358.649 193.392 359.049 193.392C359.449 193.392 359.793 193.536 360.081 193.824C360.369 194.096 360.513 194.432 360.513 194.832C360.513 195.232 360.369 195.576 360.081 195.864C359.793 196.136 359.449 196.272 359.049 196.272ZM357.897 210V198.36H360.225V210H357.897ZM365.748 199.896C366.244 199.352 366.884 198.896 367.668 198.528C368.452 198.16 369.18 197.976 369.852 197.976C371.276 197.976 372.308 198.392 372.948 199.224C373.604 200.04 373.932 201.072 373.932 202.32V210H371.628V202.536C371.628 201.752 371.436 201.128 371.052 200.664C370.684 200.2 370.124 199.96 369.372 199.944C368.892 199.944 368.332 200.096 367.692 200.4C367.052 200.704 366.5 201.104 366.036 201.6V210H363.732V198.36H365.028L365.748 199.896ZM385.03 201.072C384.598 200.72 384.142 200.448 383.662 200.256C383.198 200.048 382.75 199.944 382.318 199.944C381.118 199.944 380.27 200.368 379.774 201.216C379.294 202.064 379.054 203.04 379.054 204.144C379.054 205.312 379.286 206.304 379.75 207.12C380.214 207.936 381.07 208.344 382.318 208.344C382.75 208.344 383.198 208.248 383.662 208.056C384.142 207.848 384.598 207.568 385.03 207.216V201.072ZM387.358 210.624C387.358 211.904 386.918 212.968 386.038 213.816C385.158 214.68 383.822 215.112 382.03 215.112C381.534 215.112 380.854 215.008 379.99 214.8C379.142 214.608 378.446 214.328 377.902 213.96C378.014 213.688 378.126 213.408 378.238 213.12C378.366 212.848 378.486 212.576 378.598 212.304C379.158 212.56 379.678 212.776 380.158 212.952C380.654 213.144 381.254 213.24 381.958 213.24C382.918 213.24 383.67 213.016 384.214 212.568C384.758 212.12 385.03 211.464 385.03 210.6V209.208C384.55 209.544 384.022 209.808 383.446 210C382.87 210.192 382.334 210.288 381.838 210.288C380.142 210.288 378.862 209.712 377.998 208.56C377.134 207.392 376.702 205.928 376.702 204.168C376.702 202.392 377.142 200.92 378.022 199.752C378.918 198.568 380.214 197.976 381.91 197.976C382.47 197.976 383.078 198.112 383.734 198.384C384.406 198.64 384.99 198.976 385.486 199.392L386.038 198.36H387.358V210.624ZM175.037 228.944C173.837 228.944 172.989 229.368 172.493 230.216C172.013 231.064 171.773 232.04 171.773 233.144C171.773 234.312 172.005 235.304 172.469 236.12C172.933 236.936 173.789 237.344 175.037 237.344C175.469 237.344 175.917 237.248 176.381 237.056C176.861 236.848 177.317 236.568 177.749 236.216V230.072C177.317 229.72 176.861 229.448 176.381 229.256C175.917 229.048 175.469 228.944 175.037 228.944ZM180.077 222.08V239H178.757L178.133 237.92C177.637 238.352 177.053 238.696 176.381 238.952C175.725 239.192 175.117 239.312 174.557 239.312C172.861 239.312 171.581 238.728 170.717 237.56C169.853 236.392 169.421 234.928 169.421 233.168C169.421 231.392 169.861 229.92 170.741 228.752C171.637 227.568 172.933 226.976 174.629 226.976C175.109 226.976 175.629 227.08 176.189 227.288C176.749 227.48 177.269 227.736 177.749 228.056V222.32L180.077 222.08ZM193.694 233.696H185.438C185.518 234.768 185.854 235.648 186.446 236.336C187.038 237.024 187.926 237.368 189.11 237.368C189.798 237.368 190.374 237.296 190.838 237.152C191.318 236.992 191.798 236.8 192.278 236.576L192.998 238.256C192.486 238.608 191.83 238.864 191.03 239.024C190.246 239.2 189.606 239.288 189.11 239.288C187.158 239.288 185.654 238.728 184.598 237.608C183.558 236.472 183.038 234.992 183.038 233.168C183.038 231.36 183.526 229.888 184.502 228.752C185.494 227.616 186.862 227.048 188.606 227.048C190.494 227.048 191.814 227.712 192.566 229.04C193.318 230.368 193.694 231.92 193.694 233.696ZM191.462 232.136C191.318 231.176 191.014 230.416 190.55 229.856C190.086 229.296 189.414 229.016 188.534 229.016C187.638 229.016 186.934 229.304 186.422 229.88C185.91 230.44 185.598 231.192 185.486 232.136H191.462ZM196.531 239V222.32L198.835 222.056V239H196.531ZM203.588 225.272C203.188 225.272 202.852 225.136 202.58 224.864C202.308 224.576 202.172 224.232 202.172 223.832C202.156 223.432 202.284 223.096 202.556 222.824C202.844 222.536 203.188 222.392 203.588 222.392C203.988 222.392 204.332 222.536 204.62 222.824C204.908 223.096 205.052 223.432 205.052 223.832C205.052 224.232 204.908 224.576 204.62 224.864C204.332 225.136 203.988 225.272 203.588 225.272ZM202.436 239V227.36H204.764V239H202.436ZM213.264 229.016C212.176 229.016 211.36 229.416 210.816 230.216C210.288 231 210.016 231.976 210 233.144C210 234.36 210.256 235.368 210.768 236.168C211.28 236.952 212.088 237.344 213.192 237.344C213.896 237.344 214.448 237.272 214.848 237.128C215.264 236.984 215.72 236.792 216.216 236.552L216.912 238.208C216.4 238.56 215.776 238.832 215.04 239.024C214.304 239.216 213.688 239.312 213.192 239.312C211.4 239.312 210.024 238.744 209.064 237.608C208.12 236.472 207.648 234.992 207.648 233.168C207.664 231.36 208.152 229.888 209.112 228.752C210.088 227.616 211.48 227.048 213.288 227.048C213.768 227.048 214.368 227.152 215.088 227.36C215.824 227.552 216.448 227.824 216.96 228.176L216.288 229.808C215.792 229.6 215.336 229.416 214.92 229.256C214.504 229.096 213.952 229.016 213.264 229.016ZM220.815 225.272C220.415 225.272 220.079 225.136 219.807 224.864C219.535 224.576 219.399 224.232 219.399 223.832C219.383 223.432 219.511 223.096 219.783 222.824C220.071 222.536 220.415 222.392 220.815 222.392C221.215 222.392 221.559 222.536 221.847 222.824C222.135 223.096 222.279 223.432 222.279 223.832C222.279 224.232 222.135 224.576 221.847 224.864C221.559 225.136 221.215 225.272 220.815 225.272ZM219.663 239V227.36H221.991V239H219.663ZM230.25 239.312C228.49 239.296 227.154 238.72 226.242 237.584C225.33 236.432 224.874 234.952 224.874 233.144C224.89 231.352 225.386 229.896 226.362 228.776C227.338 227.64 228.706 227.064 230.466 227.048C232.29 227.048 233.666 227.632 234.594 228.8C235.538 229.952 236.01 231.44 236.01 233.264C236.01 235.072 235.498 236.528 234.474 237.632C233.45 238.736 232.042 239.296 230.25 239.312ZM233.682 233.264C233.682 232.016 233.434 231 232.938 230.216C232.442 229.416 231.642 229.016 230.538 229.016C229.434 229.016 228.61 229.392 228.066 230.144C227.522 230.88 227.242 231.872 227.226 233.12C227.226 234.416 227.458 235.448 227.922 236.216C228.402 236.968 229.194 237.344 230.298 237.344C231.386 237.344 232.218 236.984 232.794 236.264C233.37 235.544 233.666 234.544 233.682 233.264ZM246.68 237.776C246.168 238.256 245.552 238.648 244.832 238.952C244.128 239.24 243.464 239.384 242.84 239.384C241.416 239.384 240.376 238.976 239.72 238.16C239.08 237.328 238.76 236.288 238.76 235.04V227.36H241.088V234.872C241.088 235.624 241.272 236.24 241.64 236.72C242.024 237.184 242.584 237.416 243.32 237.416C243.752 237.416 244.248 237.304 244.808 237.08C245.368 236.84 245.888 236.52 246.368 236.12V227.36H248.672V239H247.352L246.68 237.776ZM258.842 229.808C258.394 229.6 257.922 229.416 257.426 229.256C256.946 229.096 256.394 229.016 255.77 229.016C255.162 229.016 254.674 229.144 254.306 229.4C253.954 229.64 253.778 229.968 253.778 230.384C253.794 230.736 254.002 231.048 254.402 231.32C254.818 231.576 255.378 231.824 256.082 232.064C257.042 232.416 257.938 232.896 258.77 233.504C259.602 234.096 260.018 234.872 260.018 235.832C260.018 236.92 259.61 237.776 258.794 238.4C257.994 239.008 256.826 239.312 255.29 239.312C254.794 239.312 254.154 239.224 253.37 239.048C252.586 238.872 251.946 238.608 251.45 238.256L252.17 236.552C252.666 236.792 253.178 236.984 253.706 237.128C254.234 237.272 254.762 237.344 255.29 237.344C256.058 237.344 256.65 237.224 257.066 236.984C257.498 236.744 257.714 236.4 257.714 235.952C257.714 235.504 257.482 235.12 257.018 234.8C256.57 234.464 255.97 234.176 255.218 233.936C254.306 233.632 253.442 233.208 252.626 232.664C251.81 232.12 251.402 231.376 251.402 230.432C251.402 229.376 251.794 228.552 252.578 227.96C253.378 227.352 254.458 227.048 255.818 227.048C256.314 227.048 256.938 227.144 257.69 227.336C258.442 227.528 259.066 227.8 259.562 228.152L258.842 229.808ZM265.092 222.152L264.732 234.296C264.428 234.168 264.132 234.032 263.844 233.888C263.556 233.744 263.268 233.608 262.98 233.48L262.572 222.152H265.092ZM263.844 236.12C264.244 236.12 264.58 236.264 264.852 236.552C265.14 236.824 265.284 237.16 265.284 237.56C265.284 237.96 265.14 238.304 264.852 238.592C264.58 238.864 264.244 239 263.844 239C263.444 239 263.1 238.864 262.812 238.592C262.524 238.304 262.38 237.96 262.38 237.56C262.38 237.16 262.524 236.824 262.812 236.552C263.1 236.264 263.444 236.12 263.844 236.12Z" fill="#FDEADC"/>
<path d="M193.033 445C189.73 445 186.903 443.825 184.55 441.475C182.198 439.125 181.022 436.3 181.022 433C181.022 429.7 182.198 426.875 184.55 424.525C186.903 422.175 189.73 421 193.033 421C196.336 421 199.164 422.175 201.516 424.525C203.868 426.875 205.044 429.7 205.044 433C205.044 436.3 203.868 439.125 201.516 441.475C199.164 443.825 196.336 445 193.033 445ZM253.089 445C249.786 445 246.958 443.825 244.606 441.475C242.254 439.125 241.078 436.3 241.078 433C241.078 429.7 242.254 426.875 244.606 424.525C246.958 422.175 249.786 421 253.089 421C256.392 421 259.219 422.175 261.572 424.525C263.924 426.875 265.1 429.7 265.1 433C265.1 436.3 263.924 439.125 261.572 441.475C259.219 443.825 256.392 445 253.089 445ZM187.929 349L202.342 379H244.381L260.896 349H187.929ZM182.223 337H270.805C273.107 337 274.859 338.025 276.06 340.075C277.261 342.125 277.311 344.2 276.21 346.3L254.89 384.7C253.789 386.7 252.313 388.25 250.461 389.35C248.61 390.45 246.583 391 244.381 391H199.639L193.033 403H259.094C260.796 403 262.222 403.575 263.373 404.725C264.524 405.875 265.1 407.3 265.1 409C265.1 410.7 264.524 412.125 263.373 413.275C262.222 414.425 260.796 415 259.094 415H193.033C188.529 415 185.126 413.025 182.824 409.075C180.522 405.125 180.422 401.2 182.524 397.3L190.631 382.6L169.011 337H163.006C161.304 337 159.878 336.425 158.727 335.275C157.576 334.125 157 332.7 157 331C157 329.3 157.576 327.875 158.727 326.725C159.878 325.575 161.304 325 163.006 325H172.765C173.866 325 174.917 325.3 175.917 325.9C176.918 326.5 177.669 327.35 178.17 328.45L182.223 337Z" fill="#FDEADC"/>
</svg>
