<svg xmlns="http://www.w3.org/2000/svg" shape-rendering="geometricPrecision" text-rendering="geometricPrecision" image-rendering="optimizeQuality" fill-rule="evenodd" clip-rule="evenodd" viewBox="0 0 512 436.438"><path fill="#262626" fill-rule="nonzero" d="M511.821 132.009L512 346.987c-.093 12.96-.673 22.037-3.634 29.262-1.954 4.767-4.75 8.509-8.808 11.645-.08 1.516-.117 2.818-.152 4.085-.342 12.477-.623 22.67-18.066 30.706-20.39 9.393-51.917 13.753-83.592 13.753-33.28 0-67.101-4.815-88.56-13.654-16.524-6.805-17.417-13.572-18.811-24.138-.346-2.627-.737-5.585-1.654-8.993a6.416 6.416 0 01-.206-2.053c-3.129-2.5-5.565-5.461-7.475-9.243-3.582-7.095-4.767-16.608-4.856-31.37l.149-214.557c.001-1.665-.371-6.084.049-7.381l11.564-35.475.199-.527c.179-.418.397-.806.647-1.165l.985-23.459c.036-.871.034-2.524.165-3.467 1.163-8.264 14.44-14.695 34.132-18.635 18.737-3.751 44.107-6.086 69.583-6.086 25.475 0 50.845 2.335 69.582 6.086 20.626 4.129 34.218 10.988 34.218 19.826 0 .224-.01.445-.027.665l3.164 27.788-.014.002c.042.378.048.757.023 1.13l11.139 33.267c.441 1.315.076 5.328.077 7.01z"/><path fill="#B2C6CE" d="M292.692 95.659l-8.777 26.927a6.38 6.38 0 011.034.29c21.662 8.13 64.158 11.717 106.696 11.717 46.752 0 93.036-4.312 111.412-11.666a6.555 6.555 0 011.145-.332l-8.382-25.034c-25.462 10.67-66.248 14.627-104.595 14.249-44.203-.435-85.948-7.107-98.533-16.151zM493.02 391.925c-.281 10.234-.565 18.598-14.358 24.952-40.071 18.46-126.775 16.588-167.046 0-15.857-6.531-13.556-12.968-15.772-24.738a75.03 75.03 0 005.034 2.24c25.912 10.504 60.228 15.457 94.158 15.313 34.888-.148 69.54-5.688 94.389-16.123a59.82 59.82 0 003.595-1.644zM295.874 71.565l-.748 17.775c12.57 16.102 144.819 25.428 199.112 1.961l-2.285-20.071c-5.541 4.067-14.972 7.121-26.953 9.206-18.819 3.273-44.886 5.024-71.106 5.024-26.245 0-52.473-1.755-71.423-5.036-11.689-2.023-20.971-4.963-26.597-8.859z"/><path fill="#D6394F" d="M505.435 128.859c-36.53 14.619-175.591 17.687-222.714 0l-.151 218.103c.166 27.469 4.076 34.743 20.711 41.485 51.006 20.678 136.092 19.191 183.666-.785 16.646-6.988 18.496-16.354 18.669-40.7l-.181-218.103z"/><path fill="#DDE3E2" d="M393.658 42.646c49.003 0 97.391 8.73 97.391 19.501 0 10.77-48.153 16.904-97.155 16.904-49.003 0-97.627-6.134-97.627-16.904 0-10.771 48.389-19.501 97.391-19.501z"/><path fill="#262626" d="M389.783.067c-9.868-.6-23.135 2.892-30.302 9.022-7.957 6.809-4.923 10.378-.894 17.571l24.244 37.011c3.016 10.361 31.695 10.323 50.808 10.323 19.193 0 30.841-5.117 30.841-11.429 0-6.313-11.648-11.43-30.841-11.43-4.717 0-10.357.115-16.14.446l-13.316-37.96c-2.862-9.179-2.881-12.85-14.4-13.554z"/><path fill="#fff" d="M367.208 19.614c-.018 1.248.262 2.658.898 4.23 2.56 6.371 7.502 6.857 13.986 6.12 8.45-.965 17.25-5.571 15.591-11.159-1.394-4.025-2.172-5.647-3.631-7.396-4.548-5.454-26.711-.793-26.844 8.205z"/><path fill="#262626" fill-rule="nonzero" d="M235.637 132.009l.179 214.978c-.093 12.96-.673 22.037-3.633 29.262-1.954 4.767-4.75 8.509-8.808 11.645a151.677 151.677 0 00-.153 4.085c-.342 12.477-.622 22.67-18.066 30.706-20.39 9.393-51.917 13.753-83.591 13.753-33.28 0-67.102-4.815-88.56-13.654-16.525-6.805-17.417-13.572-18.811-24.138-.346-2.627-.738-5.585-1.654-8.993a6.388 6.388 0 01-.206-2.053c-3.13-2.5-5.566-5.461-7.476-9.243-3.582-7.095-4.767-16.608-4.855-31.37L.151 132.43c.001-1.665-.371-6.084.05-7.381l11.564-35.475.199-.527c.178-.418.396-.806.646-1.165l.986-23.459c.036-.871.033-2.524.164-3.467 1.163-8.264 14.441-14.695 34.132-18.635C66.63 38.57 92 36.235 117.475 36.235s50.845 2.335 69.583 6.086c20.625 4.129 34.217 10.988 34.217 19.826 0 .224-.01.445-.026.665l3.164 27.788-.014.002c.041.378.047.757.022 1.13l11.139 33.267c.441 1.315.076 5.328.077 7.01z"/><path fill="#B2C6CE" d="M16.508 95.659l-8.777 26.927a6.38 6.38 0 011.034.29c21.662 8.13 64.158 11.717 106.696 11.717 46.753 0 93.036-4.312 111.412-11.666a6.555 6.555 0 011.145-.332l-8.382-25.034c-25.461 10.67-66.247 14.627-104.594 14.249-44.204-.435-85.949-7.107-98.534-16.151zm200.328 296.266c-.281 10.234-.564 18.598-14.358 24.952-40.071 18.46-126.775 16.588-167.046 0-15.857-6.531-13.555-12.968-15.771-24.738a74.579 74.579 0 005.034 2.24c25.911 10.504 60.228 15.457 94.157 15.313 34.888-.148 69.54-5.688 94.39-16.123a60.071 60.071 0 003.594-1.644zM19.69 71.565l-.747 17.775c12.57 16.102 144.818 25.428 199.111 1.961l-2.285-20.071c-5.54 4.067-14.972 7.121-26.952 9.206-18.819 3.273-44.887 5.024-71.107 5.024-26.245 0-52.473-1.755-71.422-5.036-11.69-2.023-20.972-4.963-26.598-8.859z"/><path fill="#D6394F" d="M229.252 128.859c-36.531 14.619-175.591 17.687-222.715 0l-.151 218.103c.166 27.469 4.076 34.743 20.711 41.485 51.006 20.678 136.093 19.191 183.666-.785 16.646-6.988 18.497-16.354 18.67-40.7l-.181-218.103z"/><path fill="#DDE3E2" d="M117.474 42.646c49.003 0 97.392 8.73 97.392 19.501 0 10.77-48.153 16.904-97.156 16.904-49.002 0-97.626-6.134-97.626-16.904 0-10.771 48.388-19.501 97.39-19.501z"/><path fill="#262626" d="M113.599.067c-9.868-.6-23.134 2.892-30.301 9.022-7.957 6.809-4.923 10.378-.894 17.571l24.243 37.011c3.016 10.361 31.696 10.323 50.808 10.323 19.193 0 30.842-5.117 30.842-11.429 0-6.313-11.649-11.43-30.842-11.43-4.717 0-10.357.115-16.139.446l-13.317-37.96c-2.862-9.179-2.881-12.85-14.4-13.554z"/><path fill="#fff" d="M91.025 19.614c-.019 1.248.261 2.658.897 4.23 2.56 6.371 7.502 6.857 13.987 6.12 8.449-.965 17.249-5.571 15.59-11.159-1.393-4.025-2.171-5.647-3.631-7.396-4.548-5.454-26.71-.793-26.843 8.205z"/></svg>