<svg xmlns="http://www.w3.org/2000/svg" shape-rendering="geometricPrecision" text-rendering="geometricPrecision" image-rendering="optimizeQuality" fill-rule="evenodd" clip-rule="evenodd" viewBox="0 0 277.046 512.745"><path fill="#262626" fill-rule="nonzero" d="M276.836 155.09l.21 252.564c-.109 15.226-.791 25.89-4.269 34.378-2.296 5.6-5.58 9.997-10.348 13.682-.094 1.78-.138 3.31-.179 4.798-.401 14.659-.731 26.634-21.225 36.075-23.955 11.036-60.993 16.158-98.206 16.158-39.099 0-78.834-5.657-104.044-16.042-19.413-7.995-20.462-15.945-22.1-28.358-.406-3.086-.866-6.561-1.943-10.565a7.528 7.528 0 01-.242-2.413c-3.677-2.937-6.539-6.415-8.783-10.859-4.208-8.335-5.6-19.511-5.704-36.854l.174-252.07c.002-1.956-.436-7.148.059-8.672l13.585-41.678.235-.618c.209-.491.464-.948.759-1.369l1.158-27.56c.042-1.024.039-2.966.193-4.073 1.366-9.71 16.965-17.264 40.099-21.894 22.014-4.406 51.819-7.149 81.749-7.149 29.929 0 59.735 2.743 81.749 7.149 24.231 4.851 40.199 12.91 40.199 23.292 0 .264-.011.524-.031.782l3.718 32.647-.017.001c.049.444.056.89.026 1.329l13.087 39.083c.518 1.544.089 6.26.091 8.236z"/><path fill="#B2C6CE" d="M19.394 112.384L9.083 144.019c.408.078.813.191 1.215.34 25.449 9.552 75.374 13.766 125.35 13.766 54.927 0 109.302-5.066 130.892-13.706.43-.169.879-.299 1.345-.39l-9.848-29.411c-29.913 12.536-77.83 17.185-122.882 16.741-51.931-.511-100.975-8.35-115.761-18.975zm235.353 348.065c-.33 12.023-.663 21.849-16.868 29.314-47.076 21.687-148.94 19.489-196.252 0-18.63-7.673-15.926-15.234-18.529-29.062a88.486 88.486 0 005.914 2.631c30.442 12.34 70.759 18.159 110.62 17.99 40.988-.173 81.698-6.683 110.893-18.941a71.933 71.933 0 004.222-1.932zM23.132 84.077l-.878 20.882c14.768 18.918 170.139 29.875 233.924 2.305l-2.684-23.58c-6.509 4.778-17.589 8.366-31.664 10.815-22.11 3.846-52.736 5.903-83.54 5.903-30.833 0-61.647-2.062-83.909-5.916-13.734-2.377-24.639-5.831-31.249-10.409z"/><path fill="#D6394F" d="M269.333 151.389c-42.916 17.174-206.29 20.779-261.653 0l-.177 256.235c.195 32.273 4.788 40.818 24.332 48.738 59.924 24.294 159.886 22.547 215.777-.922 19.557-8.21 21.731-19.213 21.934-47.816l-.213-256.235z"/><path fill="#DDE3E2" d="M138.014 50.102c57.569 0 114.418 10.257 114.418 22.91 0 12.654-56.572 19.86-114.142 19.86-57.57 0-114.695-7.206-114.695-19.86 0-12.653 56.848-22.91 114.419-22.91z"/><path fill="#262626" d="M133.461.078c-11.594-.704-27.18 3.399-35.6 10.601-9.348 7.998-5.784 12.192-1.05 20.642l28.482 43.482c3.543 12.172 37.237 12.128 59.691 12.128 22.549 0 36.234-6.011 36.234-13.428 0-7.416-13.685-13.428-36.234-13.428-5.541 0-12.167.135-18.961.524l-15.644-44.597C147.016 5.218 146.993.906 133.461.078z"/><path fill="#fff" d="M106.939 23.043c-.021 1.467.308 3.123 1.054 4.97 3.008 7.484 8.814 8.055 16.432 7.189 9.927-1.133 20.266-6.545 18.316-13.11-1.636-4.728-2.551-6.633-4.265-8.688-5.343-6.407-31.381-.933-31.537 9.639z"/></svg>